<svg width="24" height="24" viewBox="0 0 24 24" fill="none" xmlns="http://www.w3.org/2000/svg">
<path d="M23.5 5.26557V7.41629C21.3739 8.23042 19.6704 8.49518 18.1794 8.48237C16.6085 8.46888 15.2502 8.14813 13.8269 7.79662L13.8256 7.7963C10.8903 7.07972 7.74944 6.35618 2.8292 8.16404L2.50164 8.2844V8.63337V10.2495V10.9898L3.18837 10.7133C5.46211 9.79794 7.24868 9.50525 8.80565 9.51934C10.3704 9.53351 11.7269 9.85659 13.1706 10.2113L13.1722 10.2117C13.2018 10.2189 13.2314 10.2261 13.2611 10.2333C14.8005 10.6062 16.4203 10.9987 18.3379 10.9987C19.8478 10.9987 21.5412 10.7274 23.5 10.0738V11.909C21.3738 12.7253 19.6703 12.991 18.1794 12.9781C16.6089 12.9645 15.2508 12.6424 13.8279 12.288L13.8257 12.2875C10.8902 11.5706 7.74911 10.8471 2.82867 12.6613L2.50164 12.7818V13.1304V14.7465V15.4868L3.18837 15.2103C5.46211 14.295 7.24869 14.0023 8.80568 14.0163C10.3705 14.0303 11.727 14.3532 13.1707 14.7075L13.1723 14.7078C13.2029 14.7152 13.2335 14.7227 13.2641 14.7301C14.8026 15.1026 16.4208 15.4945 18.3364 15.5004H18.3379C19.8478 15.5004 21.5412 15.2291 23.5 14.5755V15.5569C23.5 15.9223 23.2693 16.2824 22.879 16.4419C20.7228 17.3111 19.0168 17.5414 17.5289 17.4764C16.1279 17.4151 14.9043 17.0931 13.6241 16.7562C13.5328 16.7322 13.4412 16.7081 13.3492 16.684C11.9779 16.3247 10.5373 15.9733 8.83637 15.999C7.12958 16.0248 5.18977 16.4289 2.79232 17.5341L2.50164 17.6681V17.9881V23.2347C2.50164 23.3695 2.38697 23.4842 2.2517 23.4842H0.707757C0.678453 23.4842 0.626733 23.469 0.576262 23.4165C0.527363 23.3657 0.500012 23.2999 0.5 23.2347C0.5 23.2347 0.5 23.2347 0.5 23.2347L0.501875 1.49905V1.49901C0.501875 0.943945 0.94566 0.5 1.50176 0.5C2.05786 0.5 2.50164 0.943945 2.50164 1.49901V1.51681V2.26871L3.19502 1.9779C5.7952 0.887382 7.66713 0.526931 9.13981 0.515546C10.6091 0.504188 11.7169 0.838932 12.8179 1.20302C12.894 1.2282 12.9703 1.2536 13.0468 1.27907C14.0714 1.62017 15.1365 1.97476 16.4419 2.00574C17.8543 2.03925 19.5093 1.69649 21.7215 0.651155C22.1595 0.444577 22.6243 0.464805 22.9653 0.628891C23.2973 0.788707 23.5 1.07264 23.5 1.43999V2.55654C20.124 3.97116 17.8183 4.13411 16.1355 3.90133C15.2647 3.78086 14.543 3.55209 13.9029 3.31533C13.725 3.24951 13.5472 3.18038 13.371 3.11192C12.9379 2.94355 12.5152 2.77923 12.127 2.67812L11.5009 2.51508V3.16198V4.71954V5.12034L11.8508 5.19836L11.9411 5.23752C12.0269 5.27461 12.15 5.32705 12.3054 5.38955C12.6158 5.51445 13.0547 5.67929 13.5865 5.84364C14.6463 6.1712 16.092 6.50213 17.6349 6.50213C19.2255 6.50213 21.088 6.17746 23.5 5.26557ZM11.8246 5.18714L11.8267 5.18799C11.817 5.18436 11.8148 5.18309 11.8246 5.18714ZM4.75147 5.62129C4.75147 6.31599 5.31796 6.8708 6.00141 6.8708C6.68821 6.8708 7.25135 6.31497 7.25135 5.62129C7.25135 4.9266 6.68485 4.37179 6.00141 4.37179C5.31796 4.37179 4.75147 4.9266 4.75147 5.62129ZM4.75147 2.62327C4.75147 3.32636 5.32053 3.87277 6.00141 3.87277C6.68821 3.87277 7.25135 3.31695 7.25135 2.62327C7.25135 1.92857 6.68485 1.37376 6.00141 1.37376C5.31541 1.37376 4.75147 1.93697 4.75147 2.62327ZM7.75123 5.24654C7.75123 5.94392 8.3216 6.49604 9.00117 6.49604C9.68951 6.49604 10.2511 5.93518 10.2511 5.24654C10.2511 4.54244 9.67869 3.99703 9.00117 3.99703C8.3216 3.99703 7.75123 4.54915 7.75123 5.24654ZM7.75123 2.26023C7.75123 2.96332 8.32029 3.50973 9.00117 3.50973C9.68798 3.50973 10.2511 2.95391 10.2511 2.26023C10.2511 1.56553 9.68462 1.01072 9.00117 1.01072C8.31518 1.01072 7.75123 1.57393 7.75123 2.26023Z" stroke="black"/>
</svg>
