<svg width="19" height="24" viewBox="0 0 19 24" fill="none" xmlns="http://www.w3.org/2000/svg">
<path d="M10.1013 23.141L10.1031 23.1389C11.3641 21.6395 13.3941 19.0758 15.106 16.3827C15.962 15.036 16.7321 13.6666 17.2869 12.3887C17.8453 11.1022 18.167 9.94919 18.167 9.02335C18.167 4.33176 14.2283 0.5 9.33366 0.5C4.4409 0.5 0.500326 4.33182 0.500326 9.02335C0.500326 9.94846 0.824343 11.101 1.38618 12.3877C1.94424 13.6657 2.7185 15.0351 3.57738 16.3821C5.29463 19.0752 7.32476 21.6392 8.56639 23.1415C8.96448 23.6197 9.70342 23.6195 10.1013 23.141Z" stroke="black"/>
</svg>
