<svg width="167" height="89" viewBox="0 0 167 89" fill="none" xmlns="http://www.w3.org/2000/svg">
<path d="M0 72.24L1.59008 70.3485C2.40901 71.1094 3.46728 71.5613 4.58317 71.6268C5.73675 71.6268 6.29796 71.1696 6.29796 70.4525C6.29796 69.7354 5.60165 69.4132 4.54159 68.9975L2.95152 68.322C2.24514 68.0942 1.62778 67.651 1.18605 67.0546C0.744323 66.4582 0.500386 65.7384 0.488457 64.9963C0.488457 62.9801 2.29678 61.3589 4.83259 61.3589C6.29253 61.3698 7.69208 61.943 8.74023 62.9594L7.34761 64.6949C6.63975 64.0902 5.74273 63.752 4.81181 63.7388C3.86607 63.7388 3.2633 64.1441 3.2633 64.8404C3.2633 65.5367 4.05314 65.8797 5.12358 66.285L6.67209 66.9086C7.38475 67.1169 8.00859 67.5549 8.44652 68.1545C8.88446 68.7541 9.11195 69.4816 9.09358 70.2238C9.09358 72.3024 7.40997 74.0068 4.50002 74.0068C2.83286 73.9961 1.22911 73.3664 0 72.24Z" fill="#666666"/>
<path d="M10.7459 61.7017C10.7144 61.3803 10.7809 61.057 10.9366 60.7741C11.0923 60.4913 11.3298 60.2621 11.6181 60.1167C11.9064 59.9713 12.2319 59.9166 12.5519 59.9596C12.8719 60.0026 13.1714 60.1414 13.4111 60.3577C13.6508 60.574 13.8194 60.8578 13.8949 61.1717C13.9704 61.4857 13.9491 61.8151 13.8339 62.1167C13.7188 62.4183 13.5151 62.6781 13.2496 62.8618C12.9841 63.0456 12.6692 63.1447 12.3464 63.1462C12.1446 63.1649 11.9412 63.1416 11.7489 63.0777C11.5567 63.0138 11.3797 62.9107 11.2293 62.7749C11.0789 62.6392 10.9583 62.4737 10.8751 62.289C10.7919 62.1042 10.7479 61.9043 10.7459 61.7017ZM10.9641 64.4973H13.7182V73.7987H10.9641V64.4973Z" fill="#666666"/>
<path d="M15.3086 72.7595L16.5453 71.0447C17.2114 71.6269 18.0524 71.9707 18.9356 72.0216C19.7567 72.0216 20.11 71.7098 20.11 71.2214C20.11 70.7329 19.1955 70.338 18.2393 69.9639C17.0961 69.5274 15.7763 68.7687 15.7763 67.2306C15.7763 65.5054 17.1793 64.3311 19.3306 64.3311C20.5172 64.3372 21.667 64.7436 22.5939 65.4846L21.3675 67.1371C20.8173 66.6703 20.1332 66.3901 19.4137 66.3368C18.6966 66.3368 18.3744 66.6174 18.3744 67.0851C18.3744 67.5528 19.237 67.9061 20.2035 68.2491C21.3779 68.6856 22.7082 69.3507 22.7082 71.0447C22.7082 72.7387 21.3779 74.0378 18.8941 74.0378C17.5917 74.0132 16.3328 73.5644 15.3086 72.7595Z" fill="#666666"/>
<path d="M24.4124 70.4105V66.6587H23.1445V64.5802L24.5683 64.4762L24.8905 62.0132H27.1665V64.4762H29.3905V66.6379H27.1665V70.3585C27.1665 71.3978 27.6446 71.8239 28.3616 71.8239C28.6642 71.8175 28.9633 71.7577 29.245 71.6472L29.6815 73.653C29.0108 73.874 28.3091 73.9862 27.603 73.9855C25.3686 74.0063 24.4124 72.5617 24.4124 70.4105Z" fill="#666666"/>
<path d="M30.3262 69.1426C30.2854 68.5323 30.3678 67.9201 30.5683 67.3423C30.7689 66.7646 31.0836 66.233 31.4937 65.7793C31.9038 65.3255 32.401 64.9589 32.9556 64.7011C33.5102 64.4434 34.111 64.2997 34.7223 64.2788C37.362 64.2788 38.6715 66.2015 38.6715 68.7269C38.6733 69.135 38.635 69.5422 38.5572 69.9428H32.9971C33.0626 70.5184 33.3501 71.0457 33.7985 71.4125C34.2468 71.7793 34.8206 71.9568 35.3978 71.907C36.1126 71.8959 36.8103 71.6872 37.414 71.3043L38.3181 72.9567C37.3462 73.6199 36.2002 73.9814 35.0237 73.996C34.3867 74.021 33.7516 73.9113 33.1598 73.6742C32.5681 73.437 32.0331 73.0776 31.5897 72.6196C31.1464 72.1615 30.8047 71.6151 30.587 71.0159C30.3692 70.4168 30.2804 69.7784 30.3262 69.1426ZM36.3123 68.1033C36.3123 67.064 35.8655 66.347 34.7742 66.347C34.3059 66.3544 33.858 66.5403 33.5219 66.8667C33.1859 67.1931 32.987 67.6353 32.9659 68.1033H36.3123Z" fill="#666666"/>
<path d="M40.5625 64.4975H42.7969L43.036 65.6926C43.3794 65.272 43.8078 64.9286 44.2932 64.6851C44.7785 64.4415 45.3099 64.3032 45.8524 64.2792C46.388 64.2389 46.9229 64.3676 47.3815 64.6473C47.8402 64.9269 48.1995 65.3434 48.409 65.8381C48.7609 65.3849 49.2051 65.0116 49.7121 64.7428C50.2191 64.4741 50.7774 64.3161 51.3501 64.2792C53.3559 64.2792 54.2496 65.703 54.2496 68.0206V73.7989H51.5164V68.3739C51.5164 67.0333 51.1422 66.6176 50.3628 66.6176C50.0529 66.6567 49.7538 66.7568 49.4827 66.9119C49.2116 67.0671 48.9738 67.2743 48.7831 67.5217V73.7573H46.029V68.3739C46.029 67.0333 45.6653 66.6176 44.8858 66.6176C44.2606 66.6988 43.6929 67.0238 43.3062 67.5217V73.7573H40.5625V64.4975Z" fill="#666666"/>
<path d="M56.1617 71.2109C56.1617 69.257 57.7206 68.197 61.358 67.8021C61.3675 67.6126 61.335 67.4233 61.2629 67.2478C61.1908 67.0724 61.0808 66.915 60.9408 66.7869C60.8009 66.6588 60.6343 66.5633 60.4532 66.507C60.272 66.4507 60.0806 66.4352 59.8927 66.4614C59.0135 66.5285 58.1659 66.8182 57.4296 67.3032L56.4839 65.4845C57.6693 64.7199 59.0436 64.299 60.4539 64.2686C62.8234 64.2686 64.1433 65.6196 64.1433 68.4256V73.7986H61.8985L61.701 72.8425H61.6283C60.9062 73.5582 59.9421 73.9772 58.9262 74.0169C58.556 74.0303 58.187 73.9666 57.8427 73.8298C57.4985 73.693 57.1864 73.4861 56.9265 73.2222C56.6665 72.9583 56.4642 72.6432 56.3326 72.2969C56.2009 71.9507 56.1427 71.5808 56.1617 71.2109ZM61.358 71.0861V69.4649C59.4042 69.7247 58.7599 70.2859 58.7599 70.9926C58.7599 71.6993 59.1756 71.876 59.7991 71.876C60.1061 71.8699 60.4078 71.7959 60.6828 71.6594C60.9577 71.5228 61.199 71.327 61.3892 71.0861H61.358Z" fill="#666666"/>
<path d="M65.6299 72.7595L66.8666 71.0447C67.5327 71.6269 68.3737 71.9707 69.2569 72.0216C70.0779 72.0216 70.4313 71.7098 70.4313 71.2214C70.4313 70.7329 69.5167 70.338 68.5606 69.9639C67.4174 69.5274 66.0976 68.7687 66.0976 67.2306C66.0976 65.5054 67.5006 64.3311 69.6518 64.3311C70.8385 64.3372 71.9883 64.7436 72.9151 65.4846L71.6888 67.1371C71.1386 66.6703 70.4545 66.3901 69.735 66.3368C69.0179 66.3368 68.6957 66.6174 68.6957 67.0851C68.6957 67.5528 69.5583 67.9061 70.5248 68.2491C71.6992 68.6856 73.0295 69.3507 73.0295 71.0447C73.0295 72.7387 71.6992 74.0378 69.2154 74.0378C67.913 74.0132 66.6541 73.5644 65.6299 72.7595Z" fill="#666666"/>
<path d="M78.1328 67.636C78.1328 63.6452 80.3776 61.4004 83.6721 61.4004C86.9666 61.4004 89.2114 63.7076 89.2114 67.636C89.2114 71.5644 86.9562 74.0067 83.6721 74.0067C80.388 74.0067 78.1328 71.6164 78.1328 67.636ZM86.3846 67.636C86.3846 65.1833 85.3453 63.7387 83.6721 63.7387C81.9989 63.7387 80.9596 65.1833 80.9596 67.636C80.9596 70.0887 81.9989 71.6268 83.6721 71.6268C85.3453 71.6268 86.3846 70.0783 86.3846 67.636Z" fill="#666666"/>
<path d="M91.2676 64.4971H93.5124L93.7098 65.4116H93.7826C94.5 64.7323 95.4358 64.3307 96.4223 64.2788C98.6775 64.2788 100.049 66.1287 100.049 68.9971C100.049 72.1772 98.1579 74.0063 96.1417 74.0063C95.3074 73.9792 94.5152 73.6333 93.9281 73.0398L94.0216 74.5052V77.2281H91.2676V64.4971ZM97.233 69.0283C97.233 67.355 96.7133 66.5236 95.6117 66.5236C95.3024 66.5396 95.0003 66.6222 94.7258 66.7656C94.4514 66.9091 94.2112 67.1102 94.0216 67.355V71.1692C94.4232 71.5426 94.9491 71.7537 95.4974 71.7615C96.4639 71.72 97.233 70.9509 97.233 69.0283Z" fill="#666666"/>
<path d="M101.453 69.1426C101.411 68.5337 101.491 67.9226 101.69 67.3455C101.889 66.7684 102.202 66.2372 102.61 65.7835C103.018 65.3297 103.513 64.9627 104.066 64.7042C104.619 64.4457 105.218 64.301 105.828 64.2788C108.468 64.2788 109.788 66.2015 109.788 68.7269C109.79 69.135 109.751 69.5422 109.673 69.9428H104.113C104.184 70.5182 104.474 71.044 104.924 71.4101C105.373 71.7762 105.947 71.9543 106.525 71.907C107.229 71.8902 107.915 71.6818 108.51 71.3043L109.424 72.9567C108.451 73.6182 107.306 73.9796 106.13 73.996C105.494 74.0197 104.86 73.9089 104.27 73.671C103.68 73.433 103.147 73.0733 102.706 72.6152C102.264 72.1571 101.925 71.611 101.709 71.0126C101.493 70.4142 101.406 69.777 101.453 69.1426ZM107.429 68.1033C107.429 67.064 106.992 66.347 105.891 66.347C105.422 66.3544 104.974 66.5403 104.638 66.8667C104.302 67.1931 104.103 67.6353 104.082 68.1033H107.429Z" fill="#666666"/>
<path d="M111.679 64.4975H113.924L114.121 66.1187H114.194C114.425 65.6026 114.791 65.1587 115.254 64.8347C115.717 64.5107 116.26 64.3187 116.824 64.2792C117.204 64.257 117.584 64.3209 117.936 64.4663L117.478 66.8358C117.141 66.7385 116.791 66.6895 116.439 66.6903C115.956 66.7192 115.494 66.9008 115.12 67.209C114.747 67.5172 114.481 67.936 114.361 68.4051V73.7989H111.606L111.679 64.4975Z" fill="#666666"/>
<path d="M118.175 71.2109C118.175 69.257 119.734 68.197 123.371 67.8021C123.381 67.6126 123.348 67.4233 123.276 67.2478C123.204 67.0724 123.094 66.915 122.954 66.7869C122.814 66.6588 122.648 66.5633 122.466 66.507C122.285 66.4507 122.094 66.4352 121.906 66.4614C121.027 66.5285 120.179 66.8182 119.443 67.3032L118.497 65.4845C119.683 64.7199 121.057 64.299 122.467 64.2686C124.837 64.2686 126.157 65.6196 126.157 68.4256V73.7986H123.912L123.714 72.8425H123.641C122.928 73.545 121.981 73.9594 120.981 74.0065C120.608 74.0258 120.236 73.9668 119.887 73.8333C119.539 73.6997 119.222 73.4947 118.958 73.2313C118.693 72.9679 118.487 72.652 118.352 72.304C118.217 71.956 118.157 71.5836 118.175 71.2109ZM123.371 71.0861V69.4649C121.417 69.7247 120.773 70.2859 120.773 70.9926C120.773 71.6993 121.189 71.876 121.812 71.876C122.119 71.8699 122.421 71.7959 122.696 71.6594C122.971 71.5228 123.212 71.327 123.402 71.0861H123.371Z" fill="#666666"/>
<path d="M128.495 70.4105V66.6587H127.217V64.5802L128.641 64.4762L128.963 62.0132H131.239V64.4762H133.452V66.6379H131.228V70.3585C131.228 71.3978 131.706 71.8239 132.424 71.8239C132.726 71.8175 133.025 71.7577 133.307 71.6472L133.743 73.653C133.073 73.8752 132.371 73.9875 131.665 73.9855C129.41 74.0063 128.495 72.5617 128.495 70.4105Z" fill="#666666"/>
<path d="M135.073 61.7017C135.042 61.3799 135.108 61.0561 135.264 60.773C135.42 60.4899 135.659 60.2607 135.948 60.1156C136.237 59.9705 136.563 59.9163 136.883 59.9601C137.203 60.0039 137.503 60.1438 137.742 60.3612C137.981 60.5786 138.149 60.8634 138.224 61.178C138.298 61.4927 138.275 61.8225 138.158 62.124C138.041 62.4254 137.836 62.6845 137.569 62.867C137.302 63.0494 136.986 63.1468 136.663 63.1463C136.462 63.1634 136.26 63.1389 136.069 63.0743C135.878 63.0097 135.702 62.9064 135.553 62.7708C135.404 62.6352 135.284 62.4703 135.201 62.2863C135.119 62.1023 135.075 61.9033 135.073 61.7017ZM135.291 64.4973H138.035V73.7987H135.291V64.4973Z" fill="#666666"/>
<path d="M139.47 64.4971H142.234L143.44 68.8828C143.679 69.8077 143.918 70.7638 144.157 71.7304H144.23C144.469 70.7638 144.718 69.8077 144.947 68.8828L146.163 64.4971H148.792L145.768 73.7985H142.65L139.47 64.4971Z" fill="#666666"/>
<path d="M149.551 69.1425C149.615 68.2629 149.935 67.4214 150.471 66.721C151.008 66.0207 151.736 65.492 152.568 65.1998C153.401 64.9076 154.3 64.8646 155.156 65.076C156.012 65.2875 156.788 65.7442 157.389 66.3902C157.989 67.0361 158.388 67.8433 158.536 68.7127C158.685 69.582 158.576 70.4758 158.224 71.2844C157.872 72.093 157.291 72.7812 156.554 73.2647C155.816 73.7482 154.953 74.0059 154.072 74.0062C153.449 74.0034 152.834 73.8731 152.264 73.6232C151.694 73.3733 151.182 73.0092 150.758 72.5534C150.334 72.0975 150.008 71.5597 149.801 70.973C149.593 70.3863 149.508 69.7633 149.551 69.1425ZM155.786 69.1425C155.786 67.542 155.215 66.4924 154.082 66.4924C152.949 66.4924 152.378 67.5316 152.378 69.1425C152.378 70.7533 152.939 71.7926 154.082 71.7926C155.225 71.7926 155.776 70.7533 155.776 69.1425H155.786Z" fill="#666666"/>
<path d="M159.548 72.7595L160.785 71.0447C161.453 71.6291 162.298 71.9729 163.185 72.0216C164.006 72.0216 164.36 71.7098 164.36 71.2214C164.36 70.7329 163.435 70.338 162.479 69.9639C161.346 69.5274 160.026 68.7687 160.026 67.2306C160.026 65.5054 161.429 64.3311 163.57 64.3311C164.76 64.3348 165.914 64.7414 166.844 65.4846L165.669 67.1059C165.118 66.6409 164.434 66.361 163.715 66.3057C162.998 66.3057 162.676 66.5863 162.676 67.0539C162.676 67.5216 163.539 67.875 164.505 68.2179C165.68 68.6544 166.999 69.3195 166.999 71.0135C166.999 72.7075 165.68 74.0066 163.185 74.0066C161.869 73.9984 160.592 73.5605 159.548 72.7595Z" fill="#666666"/>
<path d="M166.106 46.9752C165.078 46.9038 164.063 46.7084 163.082 46.3933C161.003 45.9256 158.925 45.354 156.846 44.8863L153.874 44.1588C152.835 43.899 151.743 43.7431 150.683 43.5145C149.363 43.2339 148.023 42.9741 146.724 42.6311C145.612 42.3297 144.468 42.257 143.377 41.9452C141.299 41.3632 139.293 40.9995 137.225 40.5941C132.621 39.6796 127.986 38.8794 123.34 38.1623C119.879 37.6115 116.419 37.123 112.947 36.6865C109.31 36.25 105.673 35.8551 102.004 35.5121C96.0594 34.9648 90.1009 34.6184 84.1286 34.4729C77.4981 34.2962 70.8676 34.3378 64.2474 34.6599C58.9056 34.9024 53.5672 35.3216 48.2323 35.9174C43.036 36.4994 37.8743 37.2616 32.7473 38.2038C31.178 38.4948 29.6295 38.7754 28.0498 39.1184C26.7923 39.3782 25.5763 39.8355 24.3084 40.0018C23.0915 40.1928 21.8898 40.4706 20.7126 40.8332C17.9377 41.5814 15.1317 42.1842 12.3984 43.0988C10.5485 43.7223 8.66747 44.2732 6.79679 44.8655C5.11317 45.3956 3.48153 46.0711 1.8187 46.6842C1.45295 46.8217 1.07786 46.9328 0.696289 47.0168C1.57957 46.2893 2.53353 45.6522 3.54388 45.115C5.94088 43.6878 8.41461 42.3937 10.9539 41.2385C14.6225 39.5445 18.3742 38.0583 22.1779 36.6761C24.1837 35.9486 26.2415 35.3562 28.2576 34.6703C29.2969 34.2962 30.4921 34.0052 31.6249 33.735C31.921 33.6826 32.1995 33.5576 32.4355 33.3712H31.6041C29.1618 33.3712 26.7195 33.3712 24.3292 33.3712C24.0221 33.3908 23.7157 33.3232 23.4453 33.1761C23.175 33.029 22.9518 32.8084 22.8015 32.5398C22.3338 31.8643 21.9077 31.1472 21.3881 30.5237C20.8647 29.9636 20.3918 29.3585 19.9747 28.7153C19.2784 27.5306 18.3119 26.5744 17.574 25.4209C16.8361 24.2673 15.7864 23.1449 14.9342 21.9705C13.895 20.5779 12.8557 19.1957 11.8164 17.8134C11.6033 17.5695 11.4055 17.3127 11.2241 17.0444C12.0139 16.0051 12.8765 15.0178 13.6144 13.9266C14.8407 12.0871 16.1918 10.3307 17.5116 8.55356C18.8315 6.77642 19.9643 5.21752 21.2218 3.56508C22.0451 2.58195 22.7954 1.5399 23.4666 0.447284C23.5408 0.293212 23.6629 0.167367 23.8147 0.0886574C23.9665 0.00994751 24.1398 -0.0173763 24.3084 0.0107919H80.0235C79.935 0.317899 79.7396 0.583272 79.4727 0.759064L69.3295 10.9543C69.0281 11.2557 68.6851 11.5363 68.7579 11.9935C68.7579 12.2326 68.6435 12.3469 68.3941 12.3469C68.1447 12.3469 67.9368 12.3469 67.7082 12.3469C56.6642 12.3469 45.6134 12.3469 34.5556 12.3469C34.2624 12.3202 33.9673 12.3704 33.6994 12.4925C33.4315 12.6146 33.2001 12.8044 33.0279 13.0432C32.0717 14.2591 31.0221 15.4127 30.0244 16.5975C29.6191 17.0859 29.6191 17.1067 30.0244 17.6367C31.0637 18.9358 32.1029 20.2141 33.1422 21.5444C33.2878 21.7515 33.4857 21.9164 33.7157 22.0223C33.9457 22.1281 34.1996 22.1712 34.4517 22.1472H67.4276C67.6874 22.1472 67.9472 22.1472 68.207 22.1472C68.6643 22.1472 68.789 22.3135 68.789 22.7499C68.789 24.2153 68.789 25.6807 68.789 27.1356C68.789 27.8631 68.789 27.8631 69.4957 27.832C69.9842 27.832 70.4726 27.7488 70.9611 27.7488C71.4496 27.7488 71.4911 27.6345 71.4599 27.25C71.4599 27.0525 71.4599 26.8447 71.4599 26.6472C71.4599 22.2303 71.4599 17.803 71.4599 13.3862C71.4465 13.1473 71.485 12.9083 71.573 12.6859C71.6609 12.4633 71.7961 12.2626 71.9692 12.0975C75.856 8.22446 79.7325 4.34453 83.5986 0.457677C83.7048 0.322088 83.843 0.215013 84.0008 0.146079C84.1586 0.0771448 84.3311 0.0485122 84.5027 0.0627554C84.7314 0.0627554 84.96 0.0627554 85.1887 0.0627554C99.7384 0.0627554 114.323 0.0627554 128.942 0.0627554C129.25 0.0496879 129.557 0.105394 129.841 0.225832C130.125 0.346269 130.379 0.528418 130.584 0.759064C134.27 4.53507 137.997 8.30414 141.766 12.0663C141.952 12.2375 142.098 12.4469 142.195 12.6802C142.292 12.9134 142.337 13.1649 142.328 13.4173C142.328 21.0767 142.328 28.7465 142.328 36.4163V36.9255C142.328 37.6322 142.328 37.6322 143.045 37.8609C144.583 38.3805 146.162 38.9001 147.659 39.4094C151.951 40.9059 156.212 42.5272 160.39 44.3147C162.032 45.0076 163.674 45.7247 165.316 46.466C165.631 46.5375 165.911 46.7178 166.106 46.9752ZM88.0674 12.9497C88.0674 13.0952 88.0674 13.2407 88.0674 13.3862V26.8239C88.0674 26.9901 88.0674 27.1668 88.0674 27.3331V12.9497ZM88.0674 27.3331C88.0674 27.7176 88.2233 27.832 88.5767 27.8423C89.1483 27.8423 89.7302 27.8423 90.3018 27.9047C95.3942 28.2373 100.476 28.6842 105.537 29.3805C109.372 29.9105 113.197 30.5133 116.969 31.2304C119.807 31.7708 122.633 32.3735 125.533 33.0179C125.639 32.7003 125.671 32.3625 125.627 32.0306C125.627 25.795 125.627 19.594 125.627 13.4277C125.627 12.2534 125.741 12.3885 124.587 12.3885H89.1171C88.944 12.3988 88.7705 12.3988 88.5975 12.3885C88.161 12.3365 88.0362 12.5547 88.0674 12.9393" fill="#1C8EFF"/>
<path d="M68.685 39.3779C68.685 40.5627 68.685 41.6747 68.685 42.7867C68.6628 43.1111 68.7171 43.4362 68.8435 43.7359C68.9698 44.0355 69.1647 44.3013 69.4124 44.5119C71.7924 46.8399 74.1307 49.2094 76.4899 51.5581C76.6665 51.7452 76.8536 51.9219 77.0199 52.1193C77.0681 52.1603 77.1068 52.2113 77.1334 52.2687C77.1599 52.3261 77.1737 52.3886 77.1737 52.4519C77.1737 52.5152 77.1599 52.5777 77.1334 52.6351C77.1068 52.6925 77.0681 52.7435 77.0199 52.7845C76.5002 53.4288 75.9806 54.1043 75.5337 54.7695C75.4421 54.9317 75.3042 55.0629 75.1375 55.1462C74.9709 55.2296 74.7831 55.2612 74.5984 55.2371C74.4531 55.2267 74.3072 55.2267 74.1619 55.2371H11.3486C11.3486 54.8318 11.6292 54.7175 11.8059 54.5408C15.5057 50.8203 19.2263 47.0997 22.9157 43.3687C23.0784 43.196 23.2776 43.0616 23.4986 42.9753C23.7197 42.8891 23.9572 42.853 24.194 42.8699H64.3304C64.5311 42.8543 64.7326 42.8543 64.9332 42.8699C65.0848 42.8869 65.2382 42.8597 65.3747 42.7914C65.5111 42.7232 65.6249 42.6169 65.7023 42.4853C66.4713 41.55 67.2716 40.6562 68.051 39.7417C68.2066 39.5421 68.4342 39.4115 68.685 39.3779Z" fill="#676767"/>
<path d="M125.678 39.846C128.682 40.1785 140.893 42.4857 141.922 42.891C141.922 43.1508 141.673 43.2548 141.517 43.4107C137.775 47.1728 134.013 50.9142 130.272 54.6867C130.1 54.8709 129.89 55.0149 129.657 55.1083C129.423 55.2018 129.172 55.2423 128.921 55.2271C114.177 55.2271 99.4264 55.2271 84.6688 55.2271C84.3769 55.2415 84.0854 55.1922 83.8144 55.0828C83.5435 54.9733 83.2995 54.8062 83.0995 54.5932C79.3928 50.831 75.6653 47.0897 71.917 43.3691C71.7452 43.2207 71.6072 43.0373 71.5122 42.8312C71.4172 42.625 71.3674 42.4009 71.3662 42.1739C71.3662 40.1993 71.3662 38.2143 71.3662 36.2397C71.3662 35.6369 71.3662 35.6162 72.0002 35.6162C76.2716 35.6162 80.5429 35.5226 84.8143 35.7097C85.5002 35.7097 86.1965 35.7097 86.8928 35.772C88.1919 35.772 88.0464 35.6162 88.0568 36.9256V42.122C88.0568 42.8495 88.0568 42.8598 88.8259 42.8598H124.888C125.668 42.8598 125.668 42.8598 125.678 42.0492V39.846Z" fill="#676767"/>
<path d="M166.106 46.9752C165.078 46.9038 164.063 46.7084 163.082 46.3933C161.003 45.9256 158.925 45.354 156.846 44.8863L153.874 44.1588C152.835 43.899 151.743 43.7431 150.683 43.5145C149.363 43.2339 148.023 42.9741 146.724 42.6311C145.612 42.3297 144.468 42.257 143.377 41.9452C141.299 41.3632 139.293 40.9995 137.225 40.5941C132.621 39.6796 127.986 38.8794 123.34 38.1623C119.879 37.6115 116.419 37.123 112.947 36.6865C109.31 36.25 105.673 35.8551 102.004 35.5121C96.0594 34.9648 90.1009 34.6184 84.1286 34.4729C77.4981 34.2962 70.8676 34.3378 64.2474 34.6599C58.9056 34.9024 53.5672 35.3216 48.2323 35.9174C43.036 36.4994 37.8743 37.2616 32.7473 38.2038C31.178 38.4948 29.6295 38.7754 28.0498 39.1184C26.7923 39.3782 25.5763 39.8355 24.3084 40.0018C23.0915 40.1928 21.8898 40.4706 20.7126 40.8332C17.9377 41.5814 15.1317 42.1842 12.3984 43.0988C10.5485 43.7223 8.66747 44.2732 6.79679 44.8655C5.11317 45.3956 3.48153 46.0711 1.8187 46.6842C1.45295 46.8217 1.07786 46.9328 0.696289 47.0168C1.57957 46.2893 2.53353 45.6522 3.54388 45.115C5.94088 43.6878 8.41461 42.3937 10.9539 41.2385C14.6225 39.5445 18.3742 38.0583 22.1779 36.6761C24.1837 35.9486 26.2415 35.3562 28.2576 34.6703C29.2969 34.2962 30.4921 34.0052 31.6249 33.735C31.921 33.6826 32.1995 33.5576 32.4355 33.3712H31.6041C29.1618 33.3712 26.7195 33.3712 24.3292 33.3712C24.0221 33.3908 23.7157 33.3232 23.4453 33.1761C23.175 33.029 22.9518 32.8084 22.8015 32.5398C22.3338 31.8643 21.9077 31.1472 21.3881 30.5237C20.8647 29.9636 20.3918 29.3585 19.9747 28.7153C19.2784 27.5306 18.3119 26.5744 17.574 25.4209C16.8361 24.2673 15.7864 23.1449 14.9342 21.9705C13.895 20.5779 12.8557 19.1957 11.8164 17.8134C11.6033 17.5695 11.4055 17.3127 11.2241 17.0444C12.0139 16.0051 12.8765 15.0178 13.6144 13.9266C14.8407 12.0871 16.1918 10.3307 17.5116 8.55356C18.8315 6.77642 19.9643 5.21752 21.2218 3.56508C22.0451 2.58195 22.7954 1.5399 23.4666 0.447284C23.5408 0.293212 23.6629 0.167367 23.8147 0.0886574C23.9665 0.00994751 24.1398 -0.0173763 24.3084 0.0107919H80.0235C79.935 0.317899 79.7396 0.583272 79.4727 0.759064L69.3295 10.9543C69.0281 11.2557 68.6851 11.5363 68.7579 11.9935C68.7579 12.2326 68.6435 12.3469 68.3941 12.3469C68.1447 12.3469 67.9368 12.3469 67.7082 12.3469C56.6642 12.3469 45.6134 12.3469 34.5556 12.3469C34.2624 12.3202 33.9673 12.3704 33.6994 12.4925C33.4315 12.6146 33.2001 12.8044 33.0279 13.0432C32.0717 14.2591 31.0221 15.4127 30.0244 16.5975C29.6191 17.0859 29.6191 17.1067 30.0244 17.6367C31.0637 18.9358 32.1029 20.2141 33.1422 21.5444C33.2878 21.7515 33.4857 21.9164 33.7157 22.0223C33.9457 22.1281 34.1996 22.1712 34.4517 22.1472H67.4276C67.6874 22.1472 67.9472 22.1472 68.207 22.1472C68.6643 22.1472 68.789 22.3135 68.789 22.7499C68.789 24.2153 68.789 25.6807 68.789 27.1356C68.789 27.8631 68.789 27.8631 69.4957 27.832C69.9842 27.832 70.4726 27.7488 70.9611 27.7488C71.4496 27.7488 71.4911 27.6345 71.4599 27.25C71.4599 27.0525 71.4599 26.8447 71.4599 26.6472C71.4599 22.2303 71.4599 17.803 71.4599 13.3862C71.4465 13.1473 71.485 12.9083 71.573 12.6859C71.6609 12.4633 71.7961 12.2626 71.9692 12.0975C75.856 8.22446 79.7325 4.34453 83.5986 0.457677C83.7048 0.322088 83.843 0.215013 84.0008 0.146079C84.1586 0.0771448 84.3311 0.0485122 84.5027 0.0627554C84.7314 0.0627554 84.96 0.0627554 85.1887 0.0627554C99.7384 0.0627554 114.323 0.0627554 128.942 0.0627554C129.25 0.0496879 129.557 0.105394 129.841 0.225832C130.125 0.346269 130.379 0.528418 130.584 0.759064C134.27 4.53507 137.997 8.30414 141.766 12.0663C141.952 12.2375 142.098 12.4469 142.195 12.6802C142.292 12.9134 142.337 13.1649 142.328 13.4173C142.328 21.0767 142.328 28.7465 142.328 36.4163V36.9255C142.328 37.6322 142.328 37.6322 143.045 37.8609C144.583 38.3805 146.162 38.9001 147.659 39.4094C151.951 40.9059 156.212 42.5272 160.39 44.3147C162.032 45.0076 163.674 45.7247 165.316 46.466C165.631 46.5375 165.911 46.7178 166.106 46.9752ZM88.0674 12.9497C88.0674 13.0952 88.0674 13.2407 88.0674 13.3862V26.8239C88.0674 26.9901 88.0674 27.1668 88.0674 27.3331V12.9497ZM88.0674 27.3331C88.0674 27.7176 88.2233 27.832 88.5767 27.8423C89.1483 27.8423 89.7302 27.8423 90.3018 27.9047C95.3942 28.2373 100.476 28.6842 105.537 29.3805C109.372 29.9105 113.197 30.5133 116.969 31.2304C119.807 31.7708 122.633 32.3735 125.533 33.0179C125.639 32.7003 125.671 32.3625 125.627 32.0306C125.627 25.795 125.627 19.594 125.627 13.4277C125.627 12.2534 125.741 12.3885 124.587 12.3885H89.1171C88.944 12.3988 88.7705 12.3988 88.5975 12.3885C88.161 12.3365 88.0362 12.5547 88.0674 12.9393" fill="#0080FF"/>
<path d="M68.685 39.3779C68.685 40.5627 68.685 41.6747 68.685 42.7867C68.6628 43.1111 68.7171 43.4362 68.8435 43.7359C68.9698 44.0355 69.1647 44.3013 69.4124 44.5119C71.7924 46.8399 74.1307 49.2094 76.4899 51.5581C76.6665 51.7452 76.8536 51.9219 77.0199 52.1193C77.0681 52.1603 77.1068 52.2113 77.1334 52.2687C77.1599 52.3261 77.1737 52.3886 77.1737 52.4519C77.1737 52.5152 77.1599 52.5777 77.1334 52.6351C77.1068 52.6925 77.0681 52.7435 77.0199 52.7845C76.5002 53.4288 75.9806 54.1043 75.5337 54.7695C75.4421 54.9317 75.3042 55.0629 75.1375 55.1462C74.9709 55.2296 74.7831 55.2612 74.5984 55.2371C74.4531 55.2267 74.3072 55.2267 74.1619 55.2371H11.3486C11.3486 54.8318 11.6292 54.7175 11.8059 54.5408C15.5057 50.8203 19.2263 47.0997 22.9157 43.3687C23.0784 43.196 23.2776 43.0616 23.4986 42.9753C23.7197 42.8891 23.9572 42.853 24.194 42.8699H64.3304C64.5311 42.8543 64.7326 42.8543 64.9332 42.8699C65.0848 42.8869 65.2382 42.8597 65.3747 42.7914C65.5111 42.7232 65.6249 42.6169 65.7023 42.4853C66.4713 41.55 67.2716 40.6562 68.051 39.7417C68.2066 39.5421 68.4342 39.4115 68.685 39.3779Z" fill="#666666"/>
<path d="M125.678 39.846C128.682 40.1785 140.893 42.4857 141.922 42.891C141.922 43.1508 141.673 43.2548 141.517 43.4107C137.775 47.1728 134.013 50.9142 130.272 54.6867C130.1 54.8709 129.89 55.0149 129.657 55.1083C129.423 55.2018 129.172 55.2423 128.921 55.2271C114.177 55.2271 99.4264 55.2271 84.6688 55.2271C84.3769 55.2415 84.0854 55.1922 83.8144 55.0828C83.5435 54.9733 83.2995 54.8062 83.0995 54.5932C79.3928 50.831 75.6653 47.0897 71.917 43.3691C71.7452 43.2207 71.6072 43.0373 71.5122 42.8312C71.4172 42.625 71.3674 42.4009 71.3662 42.1739C71.3662 40.1993 71.3662 38.2143 71.3662 36.2397C71.3662 35.6369 71.3662 35.6162 72.0002 35.6162C76.2716 35.6162 80.5429 35.5226 84.8143 35.7097C85.5002 35.7097 86.1965 35.7097 86.8928 35.772C88.1919 35.772 88.0464 35.6162 88.0568 36.9256V42.122C88.0568 42.8495 88.0568 42.8598 88.8259 42.8598H124.888C125.668 42.8598 125.668 42.8598 125.678 42.0492V39.846Z" fill="#666666"/>
<path d="M11 87.6829L11.4186 87.2601C11.7534 87.6246 12.1675 87.9174 12.6328 88.1186C13.0982 88.3198 13.6041 88.4248 14.1163 88.4265C15.5116 88.4265 16.4109 87.7267 16.4109 86.6915C16.4109 85.6564 15.6512 85.2335 14.7519 84.8836L13.3566 84.3004C12.845 84.1697 12.3901 83.891 12.0562 83.5038C11.7223 83.1165 11.5264 82.6404 11.4961 82.1426C11.5131 81.835 11.5968 81.5338 11.7421 81.2577C11.8874 80.9816 12.0911 80.7364 12.3409 80.537C12.5906 80.3376 12.881 80.1884 13.1944 80.0985C13.5077 80.0085 13.8372 79.9798 14.1628 80.014C14.6414 80.0155 15.1147 80.1079 15.5543 80.2858C15.9939 80.4637 16.3907 80.7234 16.7209 81.0491L16.3488 81.4574C16.0722 81.172 15.7343 80.9451 15.3574 80.7918C14.9806 80.6385 14.5734 80.5622 14.1628 80.568C12.9535 80.568 12.1318 81.1804 12.1318 82.1135C12.1318 83.0466 13.0465 83.4985 13.6822 83.7756L15.0775 84.3588C16.1008 84.7961 17 85.3356 17 86.6478C16.9857 86.987 16.8965 87.3197 16.7382 87.6248C16.5799 87.9299 16.3559 88.2007 16.0803 88.4201C15.8048 88.6394 15.4838 88.8025 15.1377 88.899C14.7916 88.9955 14.4279 89.0232 14.0698 88.9805C13.4895 88.9812 12.9157 88.8659 12.3865 88.6422C11.8572 88.4185 11.3846 88.0915 11 87.6829Z" fill="#666666"/>
<path d="M20.0255 85.7634C20.101 85.2151 20.3412 84.6993 20.7171 84.2784C21.0931 83.8575 21.5886 83.5496 22.1439 83.3918C22.6993 83.234 23.2906 83.233 23.8464 83.3891C24.4023 83.5451 24.8989 83.8515 25.2763 84.2711C25.6537 84.6908 25.8957 85.2058 25.9731 85.7539C26.0505 86.302 25.9599 86.8598 25.7124 87.3599C25.4648 87.8599 25.0709 88.2809 24.5781 88.5718C24.0853 88.8627 23.5148 89.0112 22.9355 88.9993C22.5141 88.9907 22.0993 88.8974 21.7182 88.7255C21.3371 88.5535 20.9982 88.3069 20.7237 88.0016C20.4491 87.6963 20.245 87.3391 20.1247 86.9535C20.0044 86.5679 19.9707 86.1624 20.0255 85.7634ZM25.2156 85.7634C25.2156 84.1311 24.2405 83 22.9355 83C21.6306 83 20.6556 84.1311 20.6556 85.7634C20.6556 87.3957 21.6306 88.5268 22.9355 88.5268C24.2405 88.5268 25.2156 87.3957 25.2156 85.7634Z" fill="#666666"/>
<path d="M30 88.0077V80H30.4938V88.1573C30.4938 88.4156 30.5926 88.538 30.716 88.538H30.9259L31 88.9866C30.8853 89.0045 30.769 89.0045 30.6543 88.9866C30.2222 88.9458 30 88.6603 30 88.0077Z" fill="#666666"/>
<path d="M35 86.7517V83H35.627V86.684C35.627 87.93 36.0815 88.5124 37.1944 88.5124C37.9937 88.5124 38.5737 88.1467 39.373 87.3205V83H40V88.851H39.4357V87.8758C39.1762 88.2025 38.8337 88.4736 38.4343 88.6685C38.035 88.8633 37.5894 88.9767 37.1317 89C35.6583 89 35 88.2686 35 86.7517Z" fill="#666666"/>
<path d="M44.0199 86.013C43.9824 85.6381 44.0146 85.2584 44.1146 84.8984C44.2145 84.5383 44.38 84.2058 44.6004 83.9222C44.8209 83.6385 45.0913 83.41 45.3945 83.2512C45.6977 83.0924 46.027 83.0068 46.3611 83C46.6376 83.0002 46.9113 83.0623 47.1665 83.1825C47.4216 83.3027 47.6532 83.4787 47.8478 83.7004L47.5786 84.0704C47.2707 83.7076 46.8523 83.4904 46.408 83.4625C46.1376 83.4886 45.8747 83.5761 45.6351 83.7197C45.3954 83.8633 45.184 84.0602 45.0134 84.2984C44.8428 84.5366 44.7167 84.8113 44.6425 85.1059C44.5683 85.4006 44.5477 85.7091 44.5818 86.013C44.5818 87.5195 45.3076 88.537 46.408 88.537C46.9185 88.5192 47.4039 88.283 47.7659 87.8763L48 88.2463C47.5639 88.7166 46.9875 88.9853 46.3846 88.9995C46.0478 89.0066 45.7136 88.9315 45.4049 88.7794C45.0961 88.6273 44.8201 88.4018 44.5956 88.1183C44.3712 87.8348 44.2035 87.4999 44.1042 87.1366C44.0048 86.7733 43.9761 86.39 44.0199 86.013Z" fill="#666666"/>
<path d="M52 80.5329C52 80.3916 52.0527 80.256 52.1465 80.1561C52.2402 80.0562 52.3674 80 52.5 80C52.6326 80 52.7598 80.0562 52.8536 80.1561C52.9473 80.256 53 80.3916 53 80.5329C53 80.6742 52.9473 80.8098 52.8536 80.9097C52.7598 81.0096 52.6326 81.0658 52.5 81.0658C52.3674 81.0658 52.2402 81.0096 52.1465 80.9097C52.0527 80.8098 52 80.6742 52 80.5329ZM52.2083 82.6053H52.7639V89H52.2083V82.6053Z" fill="#666666"/>
<path d="M57.0255 85.7634C57.101 85.2151 57.3412 84.6993 57.7171 84.2784C58.0931 83.8575 58.5886 83.5496 59.1439 83.3918C59.6993 83.234 60.2906 83.233 60.8464 83.3891C61.4023 83.5451 61.899 83.8515 62.2764 84.2711C62.6537 84.6908 62.8957 85.2058 62.9731 85.7539C63.0505 86.302 62.9599 86.8598 62.7124 87.3599C62.4648 87.8599 62.0709 88.2809 61.5781 88.5718C61.0853 88.8627 60.5148 89.0112 59.9356 88.9993C59.5141 88.9907 59.0993 88.8974 58.7182 88.7255C58.3371 88.5535 57.9982 88.3069 57.7237 88.0016C57.4491 87.6963 57.245 87.3391 57.1247 86.9535C57.0044 86.5679 56.9707 86.1624 57.0255 85.7634ZM62.2306 85.7634C62.2306 84.1311 61.2556 83 59.9356 83C58.6156 83 57.6555 84.1311 57.6555 85.7634C57.6555 87.3957 58.6306 88.4982 59.9356 88.4982C61.2406 88.4982 62.2306 87.3957 62.2306 85.7634Z" fill="#666666"/>
<path d="M67.0875 83.149H67.5125V84.0564C67.74 83.752 68.0226 83.5012 68.3429 83.3195C68.6632 83.1379 69.0145 83.0291 69.375 83C70.4875 83 71 83.7314 71 85.2483V89H70.5125V85.316C70.5125 84.0835 70.15 83.4876 69.2625 83.4876C68.9142 83.5265 68.5773 83.6443 68.2737 83.8333C67.9701 84.0223 67.7065 84.2782 67.5 84.5846V89H67L67.0875 83.149Z" fill="#666666"/>
<path d="M75.0257 86.0065C74.9852 85.6447 75.022 85.2789 75.1339 84.9306C75.2459 84.5824 75.4308 84.2586 75.6777 83.9785C75.9246 83.6984 76.2285 83.4676 76.5717 83.2995C76.9149 83.1315 77.2903 83.0296 77.6759 83C79.0781 83 79.9895 83.9626 79.9895 85.6373C80.0035 85.7821 80.0035 85.9277 79.9895 86.0725H75.6286C75.5939 86.3764 75.6256 86.6838 75.7218 86.9759C75.818 87.2679 75.9767 87.5383 76.1882 87.7705C76.3996 88.0027 76.6593 88.1917 76.9513 88.3261C77.2434 88.4604 77.5615 88.5371 77.8862 88.5516C78.4735 88.5516 79.0448 88.371 79.5128 88.0373L79.7512 88.4461C79.1861 88.8111 78.5156 89.0044 77.8301 88.9999C77.4277 89.0034 77.0292 88.9253 76.6617 88.7711C76.2942 88.6169 75.9663 88.3901 75.7002 88.1061C75.4342 87.8222 75.2362 87.4877 75.1198 87.1254C75.0035 86.7631 74.9713 86.3815 75.0257 86.0065ZM79.4707 85.6373C79.4707 84.1736 78.7696 83.4615 77.6759 83.4615C77.0995 83.5052 76.5629 83.7553 76.1767 84.1601C75.7906 84.5649 75.5844 85.0937 75.6006 85.6373H79.4707Z" fill="#666666"/>
<path d="M83 88.2467L83.3783 87.8644C83.9865 88.3276 84.7926 88.5869 85.6316 88.5894C86.75 88.5894 87.2763 88.0621 87.2763 87.4689C87.2763 86.8757 86.3553 86.4407 85.6316 86.1507C84.546 85.8475 83.3618 85.4915 83.3618 84.516C83.3618 83.5405 84.1678 83 85.648 83C86.392 83.0072 87.1109 83.2163 87.6875 83.5932L87.3257 83.9755C86.8671 83.6564 86.2876 83.4706 85.6809 83.4482C84.5789 83.4482 84.0362 83.9623 84.0362 84.4896C84.0362 85.0169 84.875 85.3861 85.6809 85.6365C86.7829 85.9793 88 86.2693 88 87.3766C87.9866 87.6123 87.9123 87.8431 87.7816 88.0545C87.6509 88.2659 87.4668 88.4531 87.241 88.6044C87.0151 88.7556 86.7525 88.8676 86.4698 88.9331C86.187 88.9986 85.8904 89.0163 85.5987 88.9849C84.6509 88.9926 83.7303 88.731 83 88.2467Z" fill="#666666"/>
<path d="M96 83.1539H96.4806V84.0523C96.7118 83.7626 97.0027 83.5205 97.3356 83.3407C97.6684 83.1609 98.0363 83.0472 98.417 83.0064C98.8012 82.9724 99.1852 83.074 99.4955 83.2917C99.8058 83.5093 100.021 83.8279 100.099 84.1864C100.342 83.8651 100.651 83.5946 101.009 83.3916C101.366 83.1886 101.764 83.0575 102.177 83.0064C103.392 83.0064 104 83.7305 104 85.2322V88.9464H103.435V85.2993C103.435 84.0791 103.011 83.4891 102.021 83.4891C101.338 83.6493 100.748 84.0588 100.382 84.6289V89H99.8163V85.2993C99.8163 84.0791 99.3922 83.4891 98.4028 83.4891C98.0361 83.5403 97.6846 83.6632 97.3707 83.8502C97.0568 84.0372 96.7874 84.2841 96.5795 84.5752V88.9464H96.0141L96 83.1539Z" fill="#666666"/>
<path d="M108.026 85.7148C107.985 85.3177 108.022 84.9163 108.134 84.5341C108.246 84.1519 108.431 83.7966 108.678 83.4892C108.925 83.1818 109.229 82.9284 109.572 82.744C109.915 82.5596 110.29 82.4478 110.676 82.4153C112.078 82.4153 112.99 83.4717 112.99 85.3096C113.003 85.4685 113.003 85.6283 112.99 85.7872H108.629C108.594 86.1208 108.626 86.4581 108.722 86.7786C108.818 87.0991 108.977 87.3958 109.188 87.6507C109.4 87.9055 109.659 88.113 109.951 88.2604C110.243 88.4078 110.561 88.492 110.886 88.5078C111.474 88.5079 112.045 88.3097 112.513 87.9435L112.751 88.3921C112.186 88.7927 111.516 89.0048 110.83 88.9999C110.428 89.0037 110.029 88.9181 109.662 88.7488C109.294 88.5796 108.966 88.3307 108.7 88.019C108.434 87.7074 108.236 87.3403 108.12 86.9427C108.003 86.5451 107.971 86.1264 108.026 85.7148ZM112.471 85.3096C112.471 83.7033 111.77 82.9218 110.676 82.9218C110.099 82.9698 109.563 83.2442 109.177 83.6885C108.791 84.1328 108.584 84.713 108.601 85.3096H112.471ZM110.003 81.055L111.7 79L112.12 79.3907L110.311 81.3589L110.003 81.055Z" fill="#666666"/>
<path d="M117.039 85.9088C116.944 85.3651 117.023 84.8054 117.264 84.3083C117.504 83.8113 117.896 83.4019 118.383 83.1377C118.869 82.8735 119.427 82.7679 119.977 82.8356C120.528 82.9033 121.043 83.141 121.45 83.5152V82.4346V80H122V88.8495H121.547L121.478 88.0836C121.233 88.3578 120.935 88.5803 120.603 88.7377C120.27 88.8952 119.909 88.9844 119.54 89C118.015 89 117.039 87.9058 117.039 85.9088ZM121.437 87.5365V84.0349C120.983 83.5635 120.361 83.2884 119.705 83.269C119.077 83.3444 118.504 83.6645 118.113 84.1593C117.721 84.6541 117.543 85.2832 117.617 85.9088C117.617 87.4818 118.317 88.5213 119.582 88.5213C119.945 88.4976 120.3 88.3976 120.622 88.2279C120.944 88.0582 121.226 87.8225 121.45 87.5365H121.437Z" fill="#666666"/>
<path d="M126 80.5198C125.998 80.4498 126.01 80.3801 126.034 80.3152C126.059 80.2502 126.096 80.1915 126.143 80.1426C126.19 80.0938 126.246 80.056 126.308 80.0316C126.369 80.0072 126.435 79.9967 126.5 80.0009C126.565 79.9967 126.631 80.0072 126.692 80.0316C126.754 80.056 126.81 80.0938 126.857 80.1426C126.904 80.1915 126.941 80.2502 126.966 80.3152C126.99 80.3801 127.002 80.4498 127 80.5198C127 80.5899 126.987 80.6593 126.962 80.724C126.937 80.7888 126.9 80.8476 126.853 80.8972C126.807 80.9467 126.752 80.986 126.691 81.0129C126.631 81.0397 126.566 81.0535 126.5 81.0535C126.434 81.0555 126.368 81.0431 126.306 81.017C126.245 80.9909 126.189 80.9517 126.142 80.9017C126.096 80.8518 126.059 80.7921 126.034 80.7264C126.01 80.6607 125.998 80.5904 126 80.5198ZM126.208 82.5954H126.764V89H126.208V82.5954Z" fill="#666666"/>
<path d="M131.025 86.0131C130.978 85.6381 131.018 85.2585 131.144 84.8984C131.269 84.5384 131.476 84.2058 131.753 83.9222C132.029 83.6385 132.368 83.41 132.748 83.2512C133.128 83.0924 133.541 83.0068 133.96 83C134.307 83.0002 134.65 83.0623 134.97 83.1825C135.29 83.3027 135.58 83.4787 135.824 83.7004L135.472 84.0704C135.09 83.702 134.563 83.4836 134.004 83.4625C133.664 83.4869 133.333 83.5732 133.031 83.7161C132.728 83.859 132.462 84.0556 132.246 84.294C132.031 84.5324 131.871 84.8077 131.778 85.1032C131.684 85.3986 131.657 85.7082 131.7 86.0131C131.7 87.5196 132.625 88.5372 134.004 88.5372C134.641 88.5227 135.246 88.2858 135.692 87.8765L136 88.2465C135.453 88.7168 134.731 88.9856 133.975 88.9998C133.554 89.0049 133.136 88.9284 132.751 88.7754C132.366 88.6225 132.022 88.3967 131.742 88.1134C131.462 87.8301 131.253 87.4959 131.13 87.1335C131.006 86.7711 130.97 86.389 131.025 86.0131Z" fill="#666666"/>
<path d="M139.003 87.4245C139.003 86.1077 140.357 85.5546 143.346 85.2781C143.346 84.3958 143.082 83.4609 141.79 83.4609C141.012 83.4873 140.265 83.7225 139.657 84.1325L139.361 83.7374C140.095 83.2918 140.965 83.0356 141.867 83C143.424 83 144 83.9876 144 85.1991V88.8335H143.44V88.0961C142.787 88.6098 141.947 88.9208 141.058 88.9784C140.797 89.0165 140.529 89.0041 140.274 88.9423C140.019 88.8805 139.784 88.7708 139.587 88.6213C139.389 88.4719 139.234 88.2867 139.133 88.0794C139.032 87.8722 138.987 87.6483 139.003 87.4245ZM143.346 87.6089V85.6731C140.591 85.9365 139.641 86.4896 139.641 87.3982C139.628 87.5567 139.657 87.7158 139.725 87.8638C139.794 88.0118 139.901 88.1449 140.038 88.2535C140.175 88.362 140.339 88.4433 140.519 88.4912C140.698 88.5392 140.887 88.5526 141.073 88.5306C141.94 88.4726 142.75 88.1441 143.346 87.6089Z" fill="#666666"/>
<path d="M148 88.2482L148.307 87.8658C148.803 88.3322 149.462 88.5919 150.147 88.591C151.053 88.591 151.48 88.0636 151.48 87.4702C151.48 86.8768 150.733 86.4417 150.067 86.1516C149.2 85.8483 148.227 85.4922 148.227 84.5164C148.227 83.5406 148.893 83 150.093 83C150.692 83.0101 151.27 83.2192 151.733 83.5934L151.453 83.9758C151.082 83.6565 150.612 83.4707 150.12 83.4483C149.213 83.4483 148.787 83.9626 148.787 84.4901C148.787 85.0175 149.467 85.3867 150.12 85.6373C151.013 85.9801 152 86.2702 152 87.3779C151.989 87.6123 151.929 87.842 151.824 88.0524C151.719 88.2628 151.571 88.4495 151.389 88.6006C151.208 88.7517 150.996 88.864 150.769 88.9304C150.541 88.9969 150.302 89.016 150.067 88.9866C149.313 88.9796 148.584 88.7192 148 88.2482Z" fill="#666666"/>
</svg>
