<svg width="84" height="28" viewBox="0 0 84 28" fill="none" xmlns="http://www.w3.org/2000/svg">
<path d="M83.8347 23.8085C83.3138 23.7723 82.7991 23.6733 82.3019 23.5135C81.2484 23.2765 80.195 22.9868 79.1415 22.7498L77.6351 22.3811C77.1083 22.2494 76.5553 22.1704 76.018 22.0545C75.349 21.9123 74.6696 21.7806 74.0111 21.6068C73.4475 21.454 72.8681 21.4171 72.3151 21.2591C71.2616 20.9641 70.245 20.7798 69.1968 20.5744C66.8634 20.1108 64.5142 19.7053 62.1597 19.3418C60.4057 19.0626 58.6516 18.8151 56.8923 18.5938C55.0488 18.3726 53.2052 18.1725 51.3459 17.9986C48.333 17.7212 45.313 17.5457 42.2861 17.4719C38.9255 17.3824 35.565 17.4034 32.2097 17.5667C29.5023 17.6896 26.7966 17.9021 24.0927 18.2041C21.4591 18.499 18.843 18.8853 16.2444 19.3629C15.4491 19.5104 14.6642 19.6526 13.8636 19.8264C13.2262 19.9581 12.61 20.1898 11.9674 20.2741C11.3506 20.3709 10.7415 20.5118 10.1449 20.6955C8.73849 21.0748 7.31631 21.3803 5.93101 21.8438C4.99342 22.1598 4.04004 22.439 3.09192 22.7392C2.23861 23.0079 1.41164 23.3502 0.568872 23.661C0.3835 23.7307 0.193393 23.787 0 23.8296C0.447673 23.4609 0.931172 23.1379 1.44325 22.8656C2.65812 22.1423 3.91188 21.4864 5.19885 20.9009C7.05821 20.0424 8.95972 19.2891 10.8876 18.5886C11.9041 18.2199 12.9471 17.9196 13.9689 17.572C14.4957 17.3824 15.1014 17.2349 15.6755 17.0979C15.8256 17.0714 15.9668 17.008 16.0864 16.9136H15.665C14.4272 16.9136 13.1894 16.9136 11.9779 16.9136C11.8222 16.9235 11.6669 16.8892 11.5299 16.8147C11.3929 16.7401 11.2798 16.6283 11.2036 16.4922C10.9666 16.1498 10.7506 15.7864 10.4872 15.4703C10.222 15.1865 9.98227 14.8798 9.77088 14.5538C9.41797 13.9533 8.92811 13.4687 8.55413 12.8841C8.18015 12.2994 7.64815 11.7305 7.21623 11.1353C6.6895 10.4295 6.16277 9.72894 5.63603 9.02839C5.52803 8.90477 5.42776 8.77459 5.3358 8.63861C5.73611 8.11188 6.1733 7.61148 6.54728 7.05841C7.16883 6.1261 7.85358 5.23592 8.52253 4.33521C9.19148 3.4345 9.76562 2.6444 10.403 1.80689C10.8202 1.30861 11.2005 0.780468 11.5407 0.226697C11.5783 0.148609 11.6402 0.0848268 11.7171 0.0449343C11.7941 0.0050417 11.8819 -0.00880683 11.9674 0.00546965H40.2055C40.1606 0.161121 40.0616 0.29562 39.9263 0.384717L34.7854 5.55196C34.6326 5.70471 34.4588 5.84693 34.4957 6.07869C34.4957 6.19984 34.4378 6.25778 34.3113 6.25778C34.1849 6.25778 34.0796 6.25778 33.9637 6.25778C28.3663 6.25778 22.7654 6.25778 17.1609 6.25778C17.0123 6.24425 16.8628 6.26968 16.727 6.33156C16.5912 6.39345 16.4739 6.48965 16.3866 6.61069C15.902 7.22697 15.37 7.81164 14.8644 8.41211C14.659 8.65968 14.659 8.67021 14.8644 8.93885C15.3911 9.59726 15.9178 10.2451 16.4446 10.9194C16.5184 11.0243 16.6187 11.1079 16.7352 11.1616C16.8518 11.2152 16.9805 11.2371 17.1083 11.2249H33.8215C33.9532 11.2249 34.0848 11.2249 34.2165 11.2249C34.4483 11.2249 34.5115 11.3091 34.5115 11.5304C34.5115 12.2731 34.5115 13.0158 34.5115 13.7532C34.5115 14.1219 34.5115 14.1219 34.8697 14.1061C35.1172 14.1061 35.3648 14.0639 35.6124 14.0639C35.8599 14.0639 35.881 14.006 35.8652 13.8111C35.8652 13.711 35.8652 13.6057 35.8652 13.5056C35.8652 11.267 35.8652 9.02312 35.8652 6.78451C35.8584 6.66345 35.8779 6.54235 35.9225 6.42958C35.967 6.31681 36.0356 6.21506 36.1233 6.13136C38.0933 4.16841 40.058 2.20194 42.0174 0.231965C42.0713 0.163244 42.1413 0.108975 42.2213 0.0740373C42.3013 0.0390994 42.3887 0.0245875 42.4757 0.0318064C42.5916 0.0318064 42.7074 0.0318064 42.8233 0.0318064C50.1976 0.0318064 57.5894 0.0318064 64.9988 0.0318064C65.155 0.0251834 65.3107 0.0534169 65.4547 0.114458C65.5986 0.1755 65.7272 0.267819 65.831 0.384717C67.6991 2.29851 69.5883 4.20879 71.4986 6.11556C71.5928 6.20233 71.6669 6.30849 71.716 6.42671C71.7651 6.54493 71.788 6.6724 71.7831 6.80031C71.7831 10.6823 71.7831 14.5696 71.7831 18.4569V18.715C71.7831 19.0732 71.7831 19.0732 72.1465 19.1891C72.9261 19.4524 73.7267 19.7158 74.4852 19.9739C76.6606 20.7324 78.8202 21.5541 80.9377 22.4601C81.7699 22.8112 82.6021 23.1747 83.4344 23.5504C83.594 23.5866 83.7358 23.678 83.8347 23.8085ZM44.2824 6.56329C44.2824 6.63703 44.2824 6.71077 44.2824 6.78451V13.5952C44.2824 13.6794 44.2824 13.769 44.2824 13.8533V6.56329ZM44.2824 13.8533C44.2824 14.0481 44.3614 14.1061 44.5405 14.1114C44.8302 14.1114 45.1251 14.1114 45.4149 14.143C47.9958 14.3115 50.5716 14.538 53.1367 14.8909C55.0804 15.1596 57.0188 15.4651 58.9308 15.8285C60.3688 16.1024 61.8015 16.4079 63.2711 16.7345C63.3249 16.5735 63.3411 16.4023 63.3185 16.2341C63.3185 13.0737 63.3185 9.93086 63.3185 6.80558C63.3185 6.21037 63.3764 6.27885 62.7917 6.27885H44.8144C44.7267 6.28412 44.6387 6.28412 44.551 6.27885C44.3298 6.25251 44.2666 6.36313 44.2824 6.55802" fill="#0080FF"/>
<path d="M34.4592 19.9581C34.4592 20.5586 34.4592 21.1222 34.4592 21.6858C34.448 21.8502 34.4755 22.015 34.5396 22.1668C34.6036 22.3187 34.7024 22.4534 34.8279 22.5602C36.0342 23.74 37.2193 24.941 38.415 26.1314C38.5045 26.2262 38.5993 26.3158 38.6836 26.4158C38.7081 26.4366 38.7277 26.4624 38.7411 26.4915C38.7546 26.5207 38.7616 26.5523 38.7616 26.5844C38.7616 26.6165 38.7546 26.6481 38.7411 26.6772C38.7277 26.7064 38.7081 26.7322 38.6836 26.753C38.4203 27.0795 38.1569 27.4219 37.9304 27.759C37.884 27.8412 37.814 27.9077 37.7296 27.95C37.6451 27.9922 37.55 28.0082 37.4563 27.996C37.3827 27.9908 37.3088 27.9908 37.2351 27.996H5.39941C5.39941 27.7906 5.54163 27.7327 5.63118 27.6431C7.50634 25.7574 9.39204 23.8717 11.2619 21.9808C11.3444 21.8932 11.4454 21.8251 11.5574 21.7814C11.6695 21.7377 11.7898 21.7194 11.9098 21.7279H32.2522C32.3539 21.72 32.456 21.72 32.5577 21.7279C32.6346 21.7366 32.7123 21.7228 32.7815 21.6882C32.8506 21.6536 32.9083 21.5997 32.9475 21.533C33.3373 21.059 33.7429 20.606 34.1379 20.1425C34.2168 20.0413 34.3321 19.9751 34.4592 19.9581Z" fill="#666666"/>
<path d="M63.3444 20.1951C64.8667 20.3637 71.0558 21.533 71.5772 21.7384C71.5772 21.8701 71.4508 21.9228 71.3718 22.0018C69.4756 23.9086 67.5688 25.8048 65.6726 27.7168C65.5857 27.8102 65.4793 27.8832 65.3609 27.9305C65.2425 27.9779 65.1151 27.9985 64.9878 27.9907C57.5152 27.9907 50.0392 27.9907 42.5596 27.9907C42.4116 27.998 42.2639 27.9731 42.1265 27.9176C41.9892 27.8621 41.8656 27.7774 41.7642 27.6694C39.8855 25.7627 37.9963 23.8664 36.0966 21.9807C36.0095 21.9055 35.9395 21.8126 35.8914 21.7081C35.8432 21.6036 35.818 21.49 35.8174 21.375C35.8174 20.3742 35.8174 19.3681 35.8174 18.3674C35.8174 18.0618 35.8174 18.0513 36.1387 18.0513C38.3036 18.0513 40.4684 18.0039 42.6333 18.0987C42.9809 18.0987 43.3338 18.0987 43.6868 18.1303C44.3452 18.1303 44.2714 18.0513 44.2767 18.715V21.3487C44.2767 21.7174 44.2767 21.7226 44.6665 21.7226H62.9441C63.3391 21.7226 63.3391 21.7226 63.3444 21.3118V20.1951Z" fill="#666666"/>
</svg>
