<svg width="259" height="28" viewBox="0 0 259 28" fill="none" xmlns="http://www.w3.org/2000/svg">
<path d="M89 12.4621L90.6117 10.5448C91.4418 11.316 92.5145 11.7742 93.6456 11.8406C94.8149 11.8406 95.3838 11.377 95.3838 10.6502C95.3838 9.92332 94.678 9.59675 93.6035 9.17538L91.9917 8.49066C91.2757 8.25978 90.65 7.81056 90.2022 7.206C89.7545 6.60144 89.5072 5.87189 89.4951 5.11968C89.4951 3.07602 91.3281 1.43267 93.8985 1.43267C95.3783 1.44374 96.7969 2.02477 97.8593 3.05495L96.4477 4.81418C95.7302 4.2012 94.821 3.85837 93.8774 3.84503C92.9188 3.84503 92.3078 4.25586 92.3078 4.96166C92.3078 5.66746 93.1084 6.01509 94.1934 6.42593L95.763 7.05799C96.4854 7.26914 97.1177 7.71312 97.5616 8.32087C98.0055 8.92862 98.2361 9.66605 98.2175 10.4184C98.2175 12.5253 96.511 14.2529 93.5613 14.2529C91.8715 14.2421 90.2459 13.6039 89 12.4621Z" fill="#666666"/>
<path d="M99.8925 1.78034C99.8606 1.45463 99.928 1.12689 100.086 0.840171C100.244 0.553453 100.484 0.321159 100.777 0.173805C101.069 0.0264512 101.399 -0.0290744 101.723 0.0145192C102.047 0.0581127 102.351 0.198794 102.594 0.418075C102.837 0.637355 103.008 0.924982 103.084 1.24319C103.161 1.56139 103.139 1.89529 103.023 2.20103C102.906 2.50677 102.699 2.77006 102.43 2.95631C102.161 3.14255 101.842 3.24305 101.515 3.24461C101.31 3.26356 101.104 3.23989 100.909 3.17511C100.714 3.11032 100.535 3.00582 100.383 2.86822C100.23 2.73062 100.108 2.5629 100.023 2.37565C99.9391 2.18841 99.8945 1.9857 99.8925 1.78034V1.78034ZM100.114 4.61407H102.905V14.0423H100.114V4.61407Z" fill="#666666"/>
<path d="M104.517 12.9889L105.77 11.2507C106.445 11.8409 107.298 12.1893 108.193 12.2409C109.025 12.2409 109.383 11.9249 109.383 11.4298C109.383 10.9347 108.456 10.5344 107.487 10.1551C106.329 9.71269 104.991 8.94369 104.991 7.38461C104.991 5.63592 106.413 4.44554 108.593 4.44554C109.796 4.45172 110.962 4.86373 111.901 5.61485L110.658 7.2898C110.1 6.81664 109.407 6.53263 108.678 6.47866C107.951 6.47866 107.624 6.76309 107.624 7.23713C107.624 7.71118 108.499 8.06934 109.478 8.41698C110.669 8.85942 112.017 9.53361 112.017 11.2507C112.017 12.9678 110.669 14.2846 108.151 14.2846C106.831 14.2596 105.555 13.8047 104.517 12.9889V12.9889Z" fill="#666666"/>
<path d="M113.744 10.6081V6.8052H112.459V4.69834L113.902 4.593L114.229 2.09637H116.536V4.593H118.79V6.78413H116.536V10.5554C116.536 11.6088 117.02 12.0407 117.747 12.0407C118.054 12.0343 118.357 11.9737 118.643 11.8617L119.085 13.8948C118.405 14.1188 117.694 14.2326 116.978 14.2319C114.713 14.253 113.744 12.7887 113.744 10.6081Z" fill="#666666"/>
<path d="M119.739 9.3229C119.698 8.70433 119.782 8.08379 119.985 7.49813C120.188 6.91247 120.507 6.37367 120.923 5.91375C121.339 5.45383 121.842 5.08219 122.405 4.82091C122.967 4.55964 123.576 4.41406 124.195 4.39285C126.871 4.39285 128.198 6.3417 128.198 8.90153C128.2 9.31517 128.161 9.72799 128.083 10.134H122.447C122.513 10.7175 122.805 11.2519 123.259 11.6238C123.714 11.9956 124.295 12.1754 124.88 12.125C125.605 12.1137 126.312 11.9022 126.924 11.514L127.84 13.189C126.855 13.8612 125.693 14.2277 124.501 14.2424C123.855 14.2678 123.211 14.1567 122.612 13.9163C122.012 13.6758 121.47 13.3116 121.02 12.8473C120.571 12.383 120.224 11.8291 120.004 11.2218C119.783 10.6144 119.693 9.9674 119.739 9.3229V9.3229ZM125.807 8.26947C125.807 7.21604 125.354 6.48918 124.248 6.48918C123.773 6.49674 123.319 6.68515 122.979 7.01598C122.638 7.34681 122.437 7.79512 122.415 8.26947H125.807Z" fill="#666666"/>
<path d="M130.114 4.61407H132.379L132.621 5.82551C132.97 5.39914 133.404 5.05111 133.896 4.80422C134.388 4.55733 134.926 4.41714 135.476 4.39285C136.019 4.35196 136.561 4.48245 137.026 4.76592C137.491 5.0494 137.855 5.47157 138.068 5.97299C138.424 5.51358 138.875 5.13516 139.389 4.86275C139.902 4.59035 140.468 4.43018 141.049 4.39285C143.082 4.39285 143.988 5.83605 143.988 8.1852V14.0423H141.217V8.54336C141.217 7.18444 140.838 6.76306 140.048 6.76306C139.734 6.80274 139.431 6.90414 139.156 7.06143C138.881 7.21872 138.64 7.42879 138.447 7.67955V14.0001H135.655V8.54336C135.655 7.18444 135.287 6.76306 134.497 6.76306C133.863 6.84544 133.287 7.17485 132.895 7.67955V14.0001H130.114V4.61407Z" fill="#666666"/>
<path d="M145.928 11.4192C145.928 9.43875 147.509 8.36425 151.196 7.96395C151.205 7.77188 151.172 7.58005 151.099 7.40218C151.026 7.2243 150.915 7.06476 150.773 6.93495C150.631 6.80514 150.462 6.70826 150.278 6.65123C150.095 6.5942 149.901 6.57842 149.71 6.60502C148.819 6.67303 147.96 6.96667 147.214 7.4583L146.255 5.6148C147.457 4.83979 148.85 4.41315 150.279 4.38229C152.681 4.38229 154.019 5.75174 154.019 8.59601V14.0422H151.743L151.543 13.0731H151.469C150.737 13.7985 149.76 14.2233 148.73 14.2635C148.355 14.2771 147.981 14.2125 147.632 14.0739C147.283 13.9352 146.967 13.7254 146.704 13.458C146.44 13.1905 146.235 12.8711 146.102 12.5201C145.968 12.1691 145.909 11.7942 145.928 11.4192V11.4192ZM151.196 11.2928V9.64944C149.215 9.91279 148.562 10.4816 148.562 11.198C148.562 11.9143 148.983 12.0934 149.615 12.0934C149.926 12.0872 150.232 12.0123 150.511 11.8738C150.79 11.7354 151.034 11.537 151.227 11.2928H151.196Z" fill="#666666"/>
<path d="M155.523 12.9889L156.777 11.2507C157.452 11.8409 158.305 12.1893 159.2 12.2409C160.032 12.2409 160.39 11.9249 160.39 11.4298C160.39 10.9347 159.463 10.5344 158.494 10.1551C157.335 9.71269 155.997 8.94369 155.997 7.38461C155.997 5.63592 157.42 4.44554 159.6 4.44554C160.803 4.45172 161.969 4.86373 162.908 5.61485L161.665 7.2898C161.107 6.81664 160.414 6.53263 159.684 6.47866C158.958 6.47866 158.631 6.76309 158.631 7.23713C158.631 7.71118 159.505 8.06934 160.485 8.41698C161.675 8.85942 163.024 9.53361 163.024 11.2507C163.024 12.9678 161.675 14.2846 159.158 14.2846C157.838 14.2596 156.562 13.8047 155.523 12.9889V12.9889Z" fill="#666666"/>
<path d="M168.197 7.79544C168.197 3.75027 170.473 1.47486 173.812 1.47486C177.151 1.47486 179.427 3.81348 179.427 7.79544C179.427 11.7774 177.141 14.253 173.812 14.253C170.483 14.253 168.197 11.8301 168.197 7.79544ZM176.562 7.79544C176.562 5.30935 175.508 3.84508 173.812 3.84508C172.116 3.84508 171.063 5.30935 171.063 7.79544C171.063 10.2815 172.116 11.8406 173.812 11.8406C175.508 11.8406 176.562 10.271 176.562 7.79544Z" fill="#666666"/>
<path d="M181.512 4.61407H183.787L183.987 5.54109H184.061C184.788 4.85256 185.737 4.44549 186.737 4.39285C189.023 4.39285 190.413 6.26795 190.413 9.17542C190.413 12.3989 188.496 14.2529 186.452 14.2529C185.607 14.2254 184.804 13.8748 184.208 13.2733L184.303 14.7586V17.5186H181.512V4.61407ZM187.558 9.20703C187.558 7.51101 187.032 6.66826 185.915 6.66826C185.602 6.68445 185.295 6.76813 185.017 6.91357C184.739 7.05902 184.495 7.26281 184.303 7.511V11.3771C184.71 11.7556 185.243 11.9696 185.799 11.9775C186.779 11.9354 187.558 11.1559 187.558 9.20703Z" fill="#666666"/>
<path d="M191.835 9.3229C191.792 8.70573 191.874 8.08625 192.075 7.50132C192.277 6.91639 192.594 6.37794 193.008 5.918C193.421 5.45806 193.923 5.08602 194.484 4.82402C195.044 4.56201 195.652 4.41538 196.27 4.39285C198.946 4.39285 200.283 6.3417 200.283 8.90153C200.285 9.31517 200.246 9.72799 200.168 10.134H194.532C194.603 10.7172 194.898 11.2502 195.353 11.6213C195.809 11.9924 196.39 12.1729 196.976 12.125C197.689 12.1079 198.385 11.8967 198.988 11.514L199.915 13.189C198.929 13.8595 197.768 14.2258 196.575 14.2424C195.931 14.2664 195.289 14.1542 194.691 13.913C194.093 13.6718 193.552 13.3072 193.105 12.8428C192.657 12.3785 192.313 11.825 192.094 11.2184C191.875 10.6119 191.787 9.96594 191.835 9.3229V9.3229ZM197.892 8.26947C197.892 7.21604 197.45 6.48918 196.333 6.48918C195.858 6.49674 195.404 6.68515 195.064 7.01598C194.723 7.34681 194.521 7.79512 194.5 8.26947H197.892Z" fill="#666666"/>
<path d="M202.202 4.61409H204.477L204.677 6.25743H204.751C204.984 5.73425 205.356 5.28437 205.825 4.95594C206.295 4.62751 206.845 4.43288 207.416 4.39286C207.801 4.3703 208.187 4.43512 208.543 4.58248L208.08 6.9843C207.737 6.88562 207.383 6.83597 207.026 6.83682C206.536 6.86609 206.068 7.05017 205.69 7.36255C205.311 7.67493 205.041 8.09947 204.92 8.57498V14.0423H202.128L202.202 4.61409Z" fill="#666666"/>
<path d="M208.785 11.4192C208.785 9.43875 210.365 8.36425 214.053 7.96395C214.062 7.77188 214.029 7.58005 213.956 7.40218C213.883 7.2243 213.771 7.06476 213.63 6.93495C213.488 6.80514 213.319 6.70826 213.135 6.65123C212.952 6.5942 212.758 6.57842 212.567 6.60502C211.676 6.67303 210.817 6.96667 210.071 7.4583L209.112 5.6148C210.314 4.83979 211.706 4.41315 213.136 4.38229C215.538 4.38229 216.876 5.75174 216.876 8.59601V14.0422H214.6L214.4 13.0731H214.326C213.603 13.7851 212.643 14.2052 211.63 14.2529C211.252 14.2725 210.874 14.2127 210.521 14.0773C210.168 13.942 209.847 13.7341 209.579 13.4671C209.311 13.2002 209.102 12.88 208.965 12.5272C208.828 12.1745 208.767 11.797 208.785 11.4192V11.4192ZM214.053 11.2928V9.64944C212.072 9.91279 211.419 10.4816 211.419 11.198C211.419 11.9143 211.84 12.0934 212.472 12.0934C212.783 12.0872 213.089 12.0123 213.368 11.8738C213.647 11.7354 213.891 11.537 214.084 11.2928H214.053Z" fill="#666666"/>
<path d="M219.248 10.6081V6.8052H217.952V4.69834L219.395 4.593L219.722 2.09637H222.029V4.593H224.273V6.78413H222.018V10.5554C222.018 11.6088 222.503 12.0407 223.23 12.0407C223.537 12.0343 223.84 11.9737 224.125 11.8617L224.568 13.8948C223.888 14.12 223.177 14.2339 222.461 14.2319C220.175 14.253 219.248 12.7887 219.248 10.6081Z" fill="#666666"/>
<path d="M225.914 1.7803C225.882 1.45414 225.95 1.12595 226.108 0.838968C226.266 0.551982 226.508 0.319653 226.8 0.172569C227.093 0.0254859 227.424 -0.0294549 227.749 0.0149872C228.073 0.0594293 228.377 0.201171 228.619 0.42154C228.862 0.64191 229.032 0.930572 229.107 1.24952C229.183 1.56847 229.16 1.90275 229.041 2.20834C228.923 2.51393 228.715 2.7765 228.444 2.96147C228.174 3.14644 227.853 3.24513 227.526 3.24456C227.322 3.26197 227.117 3.23716 226.923 3.17168C226.73 3.10619 226.552 3.00145 226.4 2.86401C226.249 2.72657 226.128 2.55937 226.044 2.3729C225.96 2.18643 225.916 1.98468 225.914 1.7803ZM226.135 4.61403H228.916V14.0422H226.135V4.61403Z" fill="#666666"/>
<path d="M230.37 4.61406H233.172L234.394 9.05953C234.637 9.99708 234.879 10.9662 235.121 11.9459H235.195C235.437 10.9662 235.69 9.99708 235.922 9.05953L237.154 4.61406H239.819L236.754 14.0423H233.594L230.37 4.61406Z" fill="#666666"/>
<path d="M240.588 9.32285C240.654 8.4313 240.978 7.57828 241.521 6.86839C242.065 6.1585 242.803 5.62261 243.647 5.32642C244.49 5.03023 245.402 4.98662 246.27 5.20095C247.138 5.41528 247.924 5.87823 248.533 6.53302C249.141 7.18781 249.546 8.00597 249.696 8.88718C249.846 9.7684 249.736 10.6744 249.379 11.4939C249.022 12.3135 248.434 13.0112 247.686 13.5012C246.939 13.9913 246.064 14.2525 245.17 14.2529C244.54 14.2501 243.916 14.1179 243.338 13.8646C242.761 13.6113 242.241 13.2422 241.812 12.7802C241.382 12.3182 241.052 11.773 240.842 11.1783C240.631 10.5837 240.545 9.95217 240.588 9.32285V9.32285ZM246.909 9.32285C246.909 7.70057 246.329 6.63661 245.181 6.63661C244.033 6.63661 243.453 7.69003 243.453 9.32285C243.453 10.9557 244.022 12.0091 245.181 12.0091C246.34 12.0091 246.898 10.9557 246.898 9.32285H246.909Z" fill="#666666"/>
<path d="M250.724 12.9889L251.977 11.2507C252.655 11.843 253.512 12.1916 254.411 12.2409C255.243 12.2409 255.601 11.9249 255.601 11.4298C255.601 10.9347 254.663 10.5344 253.694 10.1551C252.546 9.71269 251.208 8.94369 251.208 7.38461C251.208 5.63592 252.63 4.44554 254.8 4.44554C256.007 4.44935 257.176 4.86149 258.119 5.61485L256.928 7.2582C256.37 6.7869 255.677 6.50316 254.948 6.44706C254.221 6.44706 253.894 6.73149 253.894 7.20553C253.894 7.67957 254.769 8.03773 255.748 8.38537C256.939 8.82781 258.277 9.502 258.277 11.2191C258.277 12.9362 256.939 14.253 254.411 14.253C253.077 14.2446 251.782 13.8008 250.724 12.9889V12.9889Z" fill="#666666"/>
<path d="M84 23.9788C83.478 23.9423 82.9623 23.8426 82.4642 23.6817C81.4086 23.443 80.3531 23.1512 79.2976 22.9125L77.7881 22.5411C77.2604 22.4085 76.7062 22.3289 76.1679 22.2122C75.4976 22.069 74.8168 21.9364 74.1571 21.7613C73.5924 21.6074 73.0118 21.5703 72.4577 21.4112C71.4021 21.1141 70.3835 20.9284 69.3332 20.7215C66.9952 20.2547 64.6414 19.8462 62.2822 19.4801C60.5248 19.199 58.7673 18.9496 57.0045 18.7268C55.1573 18.504 53.3101 18.3024 51.4471 18.1274C48.4283 17.848 45.4024 17.6711 42.3694 17.5969C39.0023 17.5067 35.6351 17.5279 32.2732 17.6924C29.5604 17.8161 26.8495 18.0301 24.1402 18.3343C21.5014 18.6313 18.8801 19.0204 16.2765 19.5014C15.4795 19.6499 14.6931 19.7931 13.8909 19.9682C13.2523 20.1008 12.6348 20.3342 11.991 20.4191C11.373 20.5166 10.7627 20.6585 10.1649 20.8435C8.75572 21.2255 7.33074 21.5332 5.9427 22C5.00327 22.3183 4.048 22.5995 3.09802 22.9019C2.24303 23.1724 1.41443 23.5172 0.569993 23.8302C0.384256 23.9004 0.193774 23.9571 0 24C0.448556 23.6286 0.933008 23.3034 1.44609 23.0292C2.66336 22.3007 3.91959 21.6401 5.2091 21.0504C7.07213 20.1857 8.97738 19.4271 10.909 18.7215C11.9276 18.3502 12.9726 18.0478 13.9965 17.6977C14.5243 17.5067 15.1312 17.3581 15.7065 17.2202C15.8568 17.1935 15.9983 17.1297 16.1181 17.0345H15.6959C14.4556 17.0345 13.2154 17.0345 12.0015 17.0345C11.8455 17.0445 11.6899 17.01 11.5526 16.9349C11.4154 16.8598 11.302 16.7472 11.2257 16.6101C10.9882 16.2653 10.7718 15.8993 10.5079 15.581C10.2421 15.2951 10.002 14.9862 9.79015 14.6579C9.43654 14.0531 8.94572 13.5651 8.571 12.9762C8.19628 12.3874 7.66323 11.8144 7.23046 11.215C6.70269 10.5041 6.17492 9.79853 5.64715 9.09296C5.53893 8.96846 5.43846 8.83735 5.34632 8.70039C5.74742 8.16989 6.18547 7.66592 6.56019 7.1089C7.18296 6.16991 7.86906 5.27337 8.53933 4.36621C9.2096 3.45906 9.78487 2.66331 10.4235 1.81982C10.8416 1.31797 11.2226 0.786051 11.5635 0.228319C11.6011 0.149672 11.6632 0.0854335 11.7402 0.0452557C11.8173 0.00507776 11.9053 -0.00886982 11.991 0.00550877H40.2847C40.2398 0.162273 40.1406 0.297734 40.005 0.387469L34.854 5.59167C34.7009 5.74551 34.5268 5.88875 34.5637 6.12217C34.5637 6.24418 34.5057 6.30254 34.379 6.30254C34.2523 6.30254 34.1468 6.30254 34.0307 6.30254C28.4222 6.30254 22.8103 6.30254 17.1948 6.30254C17.0459 6.28891 16.896 6.31452 16.76 6.37685C16.6239 6.43918 16.5064 6.53607 16.419 6.65797C15.9334 7.27866 15.4004 7.86751 14.8937 8.47228C14.6879 8.72161 14.6879 8.73222 14.8937 9.00278C15.4215 9.6659 15.9492 10.3184 16.477 10.9975C16.551 11.1032 16.6514 11.1873 16.7682 11.2414C16.885 11.2954 17.014 11.3174 17.142 11.3051H33.8882C34.0201 11.3051 34.152 11.3051 34.284 11.3051C34.5162 11.3051 34.5795 11.39 34.5795 11.6128C34.5795 12.3608 34.5795 13.1088 34.5795 13.8515C34.5795 14.2229 34.5795 14.2229 34.9384 14.207C35.1865 14.207 35.4345 14.1645 35.6826 14.1645C35.9306 14.1645 35.9517 14.1062 35.9359 13.9099C35.9359 13.8091 35.9359 13.703 35.9359 13.6022C35.9359 11.3476 35.9359 9.08766 35.9359 6.83304C35.9291 6.71111 35.9487 6.58914 35.9933 6.47556C36.038 6.36199 36.1066 6.25951 36.1945 6.17522C38.1684 4.19822 40.137 2.21769 42.1003 0.233624C42.1542 0.164412 42.2244 0.109755 42.3045 0.0745669C42.3847 0.039379 42.4723 0.0247633 42.5594 0.0320338C42.6755 0.0320338 42.7917 0.0320338 42.9078 0.0320338C50.2966 0.0320338 57.7029 0.0320338 65.1269 0.0320338C65.2834 0.0253635 65.4395 0.0537989 65.5837 0.115277C65.7279 0.176755 65.8568 0.269734 65.9608 0.387469C67.8326 2.31495 69.7256 4.23889 71.6396 6.1593C71.7339 6.24669 71.8082 6.35361 71.8574 6.47268C71.9066 6.59174 71.9295 6.72012 71.9246 6.84895C71.9246 10.7587 71.9246 14.6738 71.9246 18.5889V18.8488C71.9246 19.2096 71.9246 19.2096 72.2888 19.3263C73.0699 19.5915 73.8721 19.8568 74.6321 20.1167C76.8118 20.8807 78.9756 21.7082 81.0973 22.6207C81.9311 22.9744 82.765 23.3404 83.5989 23.7188C83.7589 23.7553 83.9009 23.8474 84 23.9788ZM44.3697 6.61023C44.3697 6.6845 44.3697 6.75877 44.3697 6.83304V13.6924C44.3697 13.7773 44.3697 13.8675 44.3697 13.9523V6.61023ZM44.3697 13.9523C44.3697 14.1486 44.4489 14.207 44.6283 14.2123C44.9186 14.2123 45.2141 14.2123 45.5044 14.2441C48.0905 14.4139 50.6713 14.642 53.2415 14.9974C55.189 15.268 57.1312 15.5757 59.047 15.9417C60.4878 16.2176 61.9233 16.5253 63.3958 16.8542C63.4497 16.692 63.466 16.5196 63.4433 16.3502C63.4433 13.1672 63.4433 10.0019 63.4433 6.85426C63.4433 6.25479 63.5014 6.32376 62.9156 6.32376H44.9027C44.8149 6.32906 44.7267 6.32906 44.6389 6.32376C44.4172 6.29723 44.3539 6.40864 44.3697 6.60492" fill="#1C8EFF"/>
<path d="M34.6154 20C34.6154 20.5973 34.6154 21.158 34.6154 21.7187C34.604 21.8822 34.632 22.0462 34.6973 22.1972C34.7625 22.3483 34.8632 22.4823 34.9912 22.5885C36.2205 23.7622 37.4283 24.9569 38.6468 26.1411C38.7381 26.2354 38.8347 26.3245 38.9206 26.4241C38.9455 26.4447 38.9655 26.4704 38.9792 26.4994C38.9929 26.5283 39 26.5599 39 26.5918C39 26.6237 38.9929 26.6552 38.9792 26.6841C38.9655 26.7131 38.9455 26.7388 38.9206 26.7594C38.6522 27.0843 38.3838 27.4249 38.1529 27.7603C38.1056 27.8421 38.0344 27.9082 37.9483 27.9502C37.8622 27.9922 37.7653 28.0082 37.6698 27.996C37.5948 27.9908 37.5194 27.9908 37.4444 27.996H5C5 27.7917 5.14494 27.7341 5.23619 27.645C7.14721 25.7691 9.06897 23.8932 10.9746 22.0121C11.0587 21.925 11.1615 21.8573 11.2757 21.8138C11.3899 21.7703 11.5126 21.7521 11.6349 21.7606H32.3662C32.4698 21.7528 32.5739 21.7528 32.6776 21.7606C32.7559 21.7692 32.8351 21.7555 32.9056 21.721C32.9761 21.6866 33.0348 21.633 33.0748 21.5667C33.472 21.0951 33.8854 20.6445 34.288 20.1834C34.3683 20.0828 34.4859 20.0169 34.6154 20V20Z" fill="#676767"/>
<path d="M63.7119 20.1659C65.2444 20.3352 71.475 21.5101 72 21.7165C72 21.8488 71.8727 21.9017 71.7932 21.9811C69.8842 23.8969 67.9647 25.8021 66.0557 27.7232C65.9683 27.817 65.8611 27.8903 65.7419 27.9379C65.6227 27.9855 65.4945 28.0062 65.3663 27.9984C57.8436 27.9984 50.3173 27.9984 42.7874 27.9984C42.6385 28.0057 42.4898 27.9807 42.3515 27.9249C42.2133 27.8692 42.0888 27.7841 41.9867 27.6756C40.0954 25.7598 38.1935 23.8546 36.281 21.9599C36.1934 21.8844 36.1229 21.791 36.0745 21.686C36.026 21.581 36.0006 21.4669 36 21.3513C36 20.3458 36 19.335 36 18.3294C36 18.0225 36 18.0119 36.3235 18.0119C38.5029 18.0119 40.6823 17.9643 42.8617 18.0595C43.2117 18.0595 43.5669 18.0595 43.9222 18.0913C44.5851 18.0913 44.5108 18.0119 44.5161 18.6787V21.3249C44.5161 21.6953 44.5161 21.7006 44.9085 21.7006H63.3089C63.7066 21.7006 63.7066 21.7006 63.7119 21.2878V20.1659Z" fill="#676767"/>
<path d="M83.8347 23.8085C83.3137 23.7723 82.7991 23.6733 82.3019 23.5135C81.2484 23.2765 80.195 22.9868 79.1415 22.7498L77.6351 22.3811C77.1083 22.2494 76.5553 22.1704 76.018 22.0545C75.349 21.9123 74.6696 21.7806 74.0111 21.6068C73.4475 21.454 72.8681 21.4171 72.3151 21.2591C71.2616 20.9641 70.245 20.7798 69.1968 20.5744C66.8634 20.1108 64.5142 19.7053 62.1597 19.3418C60.4057 19.0626 58.6516 18.8151 56.8924 18.5938C55.0488 18.3726 53.2052 18.1725 51.3459 17.9986C48.333 17.7212 45.313 17.5456 42.2861 17.4719C38.9255 17.3824 35.565 17.4034 32.2097 17.5667C29.5023 17.6896 26.7966 17.9021 24.0927 18.2041C21.4591 18.499 18.843 18.8853 16.2444 19.3629C15.4491 19.5104 14.6642 19.6526 13.8636 19.8264C13.2262 19.9581 12.61 20.1898 11.9674 20.2741C11.3506 20.3709 10.7415 20.5118 10.1449 20.6955C8.73849 21.0748 7.31631 21.3803 5.93101 21.8438C4.99342 22.1598 4.04004 22.439 3.09192 22.7392C2.23861 23.0079 1.41164 23.3502 0.568872 23.661C0.3835 23.7307 0.193393 23.787 0 23.8296C0.447673 23.4609 0.931172 23.1379 1.44325 22.8656C2.65812 22.1423 3.91188 21.4864 5.19885 20.9009C7.05821 20.0424 8.95972 19.2891 10.8876 18.5886C11.9041 18.2199 12.9471 17.9196 13.9689 17.572C14.4957 17.3824 15.1014 17.2349 15.6755 17.0979C15.8256 17.0714 15.9668 17.008 16.0864 16.9136H15.665C14.4272 16.9136 13.1894 16.9136 11.9779 16.9136C11.8222 16.9235 11.6669 16.8892 11.5299 16.8147C11.3929 16.7401 11.2798 16.6283 11.2036 16.4922C10.9666 16.1498 10.7506 15.7864 10.4872 15.4703C10.222 15.1865 9.98227 14.8798 9.77088 14.5538C9.41797 13.9533 8.92811 13.4687 8.55413 12.8841C8.18015 12.2994 7.64815 11.7305 7.21623 11.1353C6.6895 10.4295 6.16277 9.72894 5.63604 9.02839C5.52803 8.90477 5.42776 8.77459 5.3358 8.63861C5.73611 8.11188 6.1733 7.61148 6.54728 7.05841C7.16883 6.1261 7.85358 5.23592 8.52253 4.33521C9.19148 3.4345 9.76562 2.6444 10.403 1.80689C10.8202 1.30861 11.2005 0.780468 11.5407 0.226697C11.5783 0.148609 11.6402 0.0848268 11.7171 0.0449343C11.7941 0.0050417 11.8819 -0.00880683 11.9674 0.00546965H40.2055C40.1606 0.161121 40.0616 0.29562 39.9263 0.384717L34.7854 5.55196C34.6326 5.70471 34.4588 5.84693 34.4957 6.07869C34.4957 6.19984 34.4378 6.25778 34.3113 6.25778C34.1849 6.25778 34.0796 6.25778 33.9637 6.25778C28.3663 6.25778 22.7654 6.25778 17.1609 6.25778C17.0123 6.24425 16.8628 6.26968 16.727 6.33156C16.5912 6.39345 16.4739 6.48965 16.3866 6.61069C15.902 7.22697 15.37 7.81164 14.8644 8.41211C14.659 8.65968 14.659 8.67021 14.8644 8.93885C15.3911 9.59726 15.9178 10.2451 16.4446 10.9194C16.5184 11.0243 16.6187 11.1079 16.7352 11.1616C16.8518 11.2152 16.9805 11.2371 17.1083 11.2249H33.8215C33.9532 11.2249 34.0848 11.2249 34.2165 11.2249C34.4483 11.2249 34.5115 11.3091 34.5115 11.5304C34.5115 12.2731 34.5115 13.0158 34.5115 13.7532C34.5115 14.1219 34.5115 14.1219 34.8697 14.1061C35.1172 14.1061 35.3648 14.0639 35.6124 14.0639C35.8599 14.0639 35.881 14.006 35.8652 13.8111C35.8652 13.711 35.8652 13.6057 35.8652 13.5056C35.8652 11.267 35.8652 9.02312 35.8652 6.78451C35.8584 6.66345 35.8779 6.54235 35.9225 6.42958C35.967 6.31681 36.0356 6.21506 36.1233 6.13136C38.0933 4.16841 40.058 2.20194 42.0174 0.231965C42.0712 0.163244 42.1413 0.108975 42.2213 0.0740373C42.3013 0.0390994 42.3887 0.0245875 42.4757 0.0318064C42.5916 0.0318064 42.7074 0.0318064 42.8233 0.0318064C50.1976 0.0318064 57.5894 0.0318064 64.9988 0.0318064C65.155 0.0251834 65.3107 0.0534169 65.4547 0.114458C65.5986 0.1755 65.7272 0.267819 65.831 0.384717C67.6991 2.29851 69.5884 4.20879 71.4986 6.11556C71.5928 6.20233 71.6669 6.30849 71.716 6.42671C71.7651 6.54493 71.788 6.6724 71.7831 6.80031C71.7831 10.6823 71.7831 14.5696 71.7831 18.4569V18.715C71.7831 19.0732 71.7831 19.0732 72.1465 19.1891C72.9261 19.4524 73.7267 19.7158 74.4852 19.9739C76.6606 20.7324 78.8202 21.5541 80.9377 22.4601C81.7699 22.8112 82.6021 23.1747 83.4344 23.5504C83.5941 23.5866 83.7358 23.678 83.8347 23.8085ZM44.2824 6.56329C44.2824 6.63703 44.2824 6.71077 44.2824 6.78451V13.5952C44.2824 13.6794 44.2824 13.769 44.2824 13.8533V6.56329ZM44.2824 13.8533C44.2824 14.0481 44.3614 14.1061 44.5405 14.1114C44.8302 14.1114 45.1251 14.1114 45.4149 14.143C47.9958 14.3115 50.5716 14.538 53.1367 14.8909C55.0804 15.1596 57.0188 15.4651 58.9308 15.8285C60.3688 16.1024 61.8015 16.4079 63.2711 16.7345C63.3249 16.5735 63.3411 16.4023 63.3185 16.2341C63.3185 13.0737 63.3185 9.93086 63.3185 6.80558C63.3185 6.21037 63.3764 6.27885 62.7917 6.27885H44.8144C44.7267 6.28412 44.6387 6.28412 44.551 6.27885C44.3298 6.25251 44.2666 6.36313 44.2824 6.55802" fill="#0080FF"/>
<path d="M34.4592 19.9581C34.4592 20.5586 34.4592 21.1222 34.4592 21.6858C34.448 21.8502 34.4755 22.015 34.5396 22.1668C34.6036 22.3187 34.7024 22.4534 34.8279 22.5602C36.0342 23.74 37.2193 24.941 38.415 26.1314C38.5045 26.2262 38.5993 26.3158 38.6836 26.4158C38.7081 26.4366 38.7277 26.4624 38.7411 26.4915C38.7546 26.5207 38.7616 26.5523 38.7616 26.5844C38.7616 26.6165 38.7546 26.6481 38.7411 26.6772C38.7277 26.7064 38.7081 26.7322 38.6836 26.753C38.4203 27.0795 38.1569 27.4219 37.9304 27.759C37.884 27.8412 37.814 27.9077 37.7296 27.95C37.6451 27.9922 37.55 28.0082 37.4563 27.996C37.3827 27.9908 37.3088 27.9908 37.2351 27.996H5.39941C5.39941 27.7906 5.54163 27.7327 5.63118 27.6431C7.50634 25.7574 9.39204 23.8717 11.2619 21.9808C11.3444 21.8932 11.4454 21.8251 11.5574 21.7814C11.6695 21.7377 11.7898 21.7194 11.9098 21.7279H32.2522C32.3539 21.72 32.456 21.72 32.5577 21.7279C32.6346 21.7366 32.7123 21.7228 32.7815 21.6882C32.8506 21.6536 32.9083 21.5997 32.9475 21.533C33.3373 21.059 33.7429 20.606 34.1379 20.1425C34.2168 20.0413 34.3321 19.9751 34.4592 19.9581V19.9581Z" fill="#666666"/>
<path d="M63.3444 20.1951C64.8667 20.3637 71.0558 21.533 71.5772 21.7384C71.5772 21.8701 71.4508 21.9228 71.3718 22.0018C69.4756 23.9086 67.5688 25.8048 65.6726 27.7168C65.5857 27.8102 65.4793 27.8832 65.3609 27.9305C65.2425 27.9779 65.1151 27.9985 64.9878 27.9907C57.5152 27.9907 50.0391 27.9907 42.5596 27.9907C42.4116 27.998 42.2639 27.9731 42.1265 27.9176C41.9892 27.8621 41.8656 27.7774 41.7642 27.6694C39.8855 25.7627 37.9963 23.8664 36.0966 21.9807C36.0095 21.9055 35.9395 21.8126 35.8914 21.7081C35.8432 21.6036 35.818 21.49 35.8174 21.375C35.8174 20.3742 35.8174 19.3681 35.8174 18.3674C35.8174 18.0618 35.8174 18.0513 36.1387 18.0513C38.3036 18.0513 40.4684 18.0039 42.6333 18.0987C42.9809 18.0987 43.3338 18.0987 43.6868 18.1303C44.3452 18.1303 44.2714 18.0513 44.2767 18.715V21.3487C44.2767 21.7174 44.2767 21.7226 44.6665 21.7226H62.9441C63.3391 21.7226 63.3391 21.7226 63.3444 21.3118V20.1951Z" fill="#666666"/>
<path d="M89 27.0205L89.2844 26.715C89.5119 26.9784 89.7933 27.1899 90.1095 27.3352C90.4257 27.4806 90.7694 27.5565 91.1174 27.5577C92.0655 27.5577 92.6765 27.0521 92.6765 26.3041C92.6765 25.5562 92.1603 25.2507 91.5493 24.9979L90.6012 24.5765C90.2536 24.4821 89.9445 24.2807 89.7176 24.0009C89.4908 23.7211 89.3576 23.3771 89.3371 23.0174C89.3486 22.7952 89.4055 22.5776 89.5042 22.3781C89.6029 22.1786 89.7414 22.0014 89.9111 21.8573C90.0808 21.7133 90.2781 21.6055 90.491 21.5405C90.7039 21.4755 90.9278 21.4547 91.149 21.4794C91.4742 21.4805 91.7958 21.5473 92.0945 21.6759C92.3932 21.8044 92.6628 21.992 92.8872 22.2274L92.6343 22.5223C92.4464 22.3161 92.2168 22.1522 91.9607 22.0415C91.7046 21.9307 91.428 21.8756 91.149 21.8797C90.3273 21.8797 89.769 22.3222 89.769 22.9964C89.769 23.6706 90.3905 23.9971 90.8224 24.1973L91.7705 24.6187C92.4658 24.9347 93.0768 25.3245 93.0768 26.2725C93.067 26.5176 93.0065 26.758 92.8989 26.9785C92.7913 27.1989 92.6391 27.3946 92.4519 27.5531C92.2647 27.7115 92.0466 27.8294 91.8114 27.8991C91.5762 27.9688 91.3291 27.9889 91.0858 27.958C90.6915 27.9585 90.3017 27.8752 89.9421 27.7136C89.5825 27.5519 89.2613 27.3157 89 27.0205V27.0205Z" fill="#666666"/>
<path d="M95.8871 25.5772C95.9401 25.1738 96.1088 24.7943 96.3728 24.4847C96.6368 24.175 96.9848 23.9485 97.3748 23.8324C97.7648 23.7163 98.1801 23.7156 98.5704 23.8304C98.9608 23.9452 99.3096 24.1706 99.5747 24.4793C99.8397 24.7881 100.01 25.167 100.064 25.5703C100.118 25.9735 100.055 26.3839 99.8809 26.7518C99.707 27.1197 99.4303 27.4294 99.0843 27.6434C98.7382 27.8575 98.3376 27.9667 97.9307 27.958C97.6348 27.9516 97.3435 27.883 97.0758 27.7565C96.8082 27.63 96.5702 27.4485 96.3774 27.2239C96.1845 26.9993 96.0412 26.7366 95.9567 26.4528C95.8723 26.1691 95.8485 25.8708 95.8871 25.5772ZM99.532 25.5772C99.532 24.3763 98.8472 23.5441 97.9307 23.5441C97.0143 23.5441 96.3295 24.3763 96.3295 25.5772C96.3295 26.7782 97.0143 27.6104 97.9307 27.6104C98.8472 27.6104 99.532 26.7782 99.532 25.5772Z" fill="#666666"/>
<path d="M103.231 27.2311V21.0264H103.653V27.347C103.653 27.5472 103.737 27.642 103.842 27.642H104.022L104.085 27.9896C103.987 28.0034 103.888 28.0034 103.79 27.9896C103.421 27.958 103.231 27.7368 103.231 27.2311Z" fill="#666666"/>
<path d="M107.298 26.2093V23.2913H107.719V26.1566C107.719 27.1258 108.025 27.5787 108.773 27.5787C109.31 27.5787 109.7 27.2943 110.237 26.6517V23.2913H110.658V27.8421H110.279V27.0836C110.105 27.3377 109.874 27.5486 109.606 27.7001C109.338 27.8517 109.038 27.9399 108.731 27.958C107.74 27.958 107.298 27.3891 107.298 26.2093Z" fill="#666666"/>
<path d="M113.903 25.5773C113.869 25.2784 113.898 24.9758 113.988 24.6887C114.078 24.4017 114.227 24.1367 114.425 23.9106C114.623 23.6844 114.867 23.5023 115.14 23.3757C115.413 23.2491 115.709 23.1809 116.01 23.1755C116.258 23.1757 116.505 23.2251 116.734 23.3209C116.964 23.4167 117.172 23.5571 117.347 23.7338L117.105 24.0287C116.828 23.7396 116.452 23.5664 116.052 23.5442C115.808 23.5649 115.572 23.6347 115.356 23.7492C115.141 23.8637 114.95 24.0206 114.797 24.2105C114.643 24.4004 114.53 24.6194 114.463 24.8542C114.396 25.0891 114.378 25.335 114.408 25.5773C114.408 26.7782 115.061 27.5893 116.052 27.5893C116.511 27.5751 116.948 27.3868 117.274 27.0626L117.484 27.3576C117.092 27.7325 116.573 27.9467 116.031 27.958C115.728 27.9636 115.427 27.9038 115.149 27.7826C114.871 27.6613 114.623 27.4816 114.421 27.2556C114.219 27.0296 114.068 26.7626 113.979 26.473C113.889 26.1833 113.863 25.8778 113.903 25.5773V25.5773Z" fill="#666666"/>
<path d="M120.276 21.8165C120.276 21.716 120.316 21.6195 120.387 21.5484C120.459 21.4773 120.555 21.4373 120.656 21.4373C120.756 21.4373 120.853 21.4773 120.924 21.5484C120.995 21.6195 121.035 21.716 121.035 21.8165C121.035 21.9171 120.995 22.0136 120.924 22.0847C120.853 22.1558 120.756 22.1958 120.656 22.1958C120.555 22.1958 120.459 22.1558 120.387 22.0847C120.316 22.0136 120.276 21.9171 120.276 21.8165V21.8165ZM120.434 23.2913H120.856V27.8422H120.434V23.2913Z" fill="#666666"/>
<path d="M124.122 25.5772C124.175 25.1738 124.344 24.7943 124.608 24.4847C124.872 24.175 125.22 23.9485 125.61 23.8324C126 23.7163 126.415 23.7156 126.806 23.8304C127.196 23.9452 127.545 24.1706 127.81 24.4793C128.075 24.7881 128.245 25.167 128.299 25.5703C128.354 25.9735 128.29 26.3839 128.116 26.7518C127.942 27.1197 127.666 27.4294 127.32 27.6434C126.974 27.8575 126.573 27.9667 126.166 27.958C125.87 27.9516 125.579 27.883 125.311 27.7565C125.044 27.63 124.806 27.4485 124.613 27.2239C124.42 26.9993 124.277 26.7366 124.192 26.4528C124.108 26.1691 124.084 25.8708 124.122 25.5772ZM127.778 25.5772C127.778 24.3763 127.093 23.5441 126.166 23.5441C125.239 23.5441 124.565 24.3763 124.565 25.5772C124.565 26.7782 125.25 27.5893 126.166 27.5893C127.083 27.5893 127.778 26.7782 127.778 25.5772Z" fill="#666666"/>
<path d="M131.473 23.2913H131.831V23.9971C132.023 23.7603 132.261 23.5653 132.531 23.424C132.801 23.2827 133.097 23.1981 133.401 23.1755C134.338 23.1755 134.77 23.7443 134.77 24.9242V27.8422H134.36V24.9768C134.36 24.0182 134.054 23.5547 133.306 23.5547C133.013 23.585 132.729 23.6766 132.473 23.8236C132.217 23.9706 131.995 24.1697 131.821 24.408V27.8422H131.399L131.473 23.2913Z" fill="#666666"/>
<path d="M138.024 25.5773C137.994 25.2882 138.021 24.996 138.105 24.7178C138.19 24.4395 138.328 24.1809 138.514 23.9572C138.699 23.7334 138.928 23.549 139.186 23.4147C139.443 23.2805 139.725 23.1991 140.015 23.1755C141.069 23.1755 141.753 23.9445 141.753 25.2823C141.764 25.398 141.764 25.5143 141.753 25.63H138.477C138.451 25.8728 138.475 26.1184 138.547 26.3516C138.619 26.5849 138.739 26.8009 138.898 26.9864C139.056 27.1719 139.251 27.323 139.471 27.4303C139.69 27.5376 139.929 27.5989 140.173 27.6104C140.614 27.6104 141.044 27.4661 141.395 27.1996L141.574 27.5261C141.15 27.8177 140.646 27.9722 140.131 27.9686C139.829 27.9713 139.529 27.909 139.253 27.7858C138.977 27.6626 138.731 27.4814 138.531 27.2546C138.331 27.0277 138.182 26.7605 138.095 26.4711C138.007 26.1817 137.983 25.8768 138.024 25.5773ZM141.364 25.2823C141.364 24.113 140.837 23.5442 140.015 23.5442C139.582 23.5791 139.179 23.7788 138.889 24.1022C138.599 24.4256 138.444 24.848 138.456 25.2823H141.364Z" fill="#666666"/>
<path d="M144.327 27.326L144.569 27.0205C144.959 27.3906 145.475 27.5978 146.013 27.5999C146.729 27.5999 147.066 27.1785 147.066 26.7045C147.066 26.2304 146.476 25.8828 146.013 25.651C145.317 25.4087 144.559 25.1243 144.559 24.3448C144.559 23.5652 145.075 23.1333 146.023 23.1333C146.5 23.1391 146.96 23.3062 147.329 23.6074L147.098 23.9129C146.804 23.6578 146.433 23.5093 146.044 23.4915C145.338 23.4915 144.991 23.9023 144.991 24.3237C144.991 24.7451 145.528 25.04 146.044 25.2402C146.75 25.5141 147.53 25.7458 147.53 26.6307C147.521 26.819 147.473 27.0035 147.39 27.1724C147.306 27.3413 147.188 27.4909 147.043 27.6118C146.899 27.7327 146.731 27.8221 146.549 27.8745C146.368 27.9268 146.178 27.9409 145.992 27.9159C145.385 27.922 144.795 27.713 144.327 27.326V27.326Z" fill="#666666"/>
<path d="M154.418 23.2913H154.776V23.9971C154.948 23.7695 155.165 23.5793 155.413 23.4381C155.661 23.2969 155.936 23.2075 156.219 23.1755C156.506 23.1487 156.792 23.2285 157.023 23.3995C157.254 23.5706 157.415 23.8208 157.473 24.1025C157.654 23.8501 157.884 23.6375 158.151 23.4781C158.417 23.3186 158.714 23.2156 159.021 23.1755C159.927 23.1755 160.38 23.7443 160.38 24.9241V27.8422H159.959V24.9768C159.959 24.0182 159.643 23.5547 158.906 23.5547C158.396 23.6805 157.957 24.0023 157.684 24.4501V27.8843H157.262V24.9768C157.262 24.0182 156.946 23.5547 156.209 23.5547C155.935 23.5949 155.674 23.6915 155.44 23.8384C155.206 23.9853 155.005 24.1792 154.85 24.408V27.8422H154.429L154.418 23.2913Z" fill="#666666"/>
<path d="M163.625 25.5772C163.594 25.2881 163.622 24.9959 163.706 24.7177C163.79 24.4395 163.929 24.1809 164.115 23.9571C164.3 23.7333 164.528 23.5489 164.786 23.4147C165.044 23.2804 165.326 23.1991 165.616 23.1754C166.669 23.1754 167.354 23.9444 167.354 25.2822C167.364 25.3979 167.364 25.5142 167.354 25.6299H164.078C164.052 25.8727 164.075 26.1183 164.148 26.3516C164.22 26.5848 164.339 26.8009 164.498 26.9863C164.657 27.1718 164.852 27.3229 165.071 27.4302C165.291 27.5375 165.53 27.5988 165.774 27.6103C166.215 27.6103 166.644 27.4661 166.996 27.1995L167.175 27.526C166.75 27.8177 166.247 27.9721 165.732 27.9685C165.429 27.9713 165.13 27.9089 164.854 27.7857C164.578 27.6625 164.331 27.4814 164.132 27.2545C163.932 27.0277 163.783 26.7604 163.696 26.471C163.608 26.1816 163.584 25.8768 163.625 25.5772ZM166.964 25.2822C166.964 24.1129 166.437 23.5441 165.616 23.5441C165.183 23.579 164.78 23.7787 164.489 24.1022C164.199 24.4256 164.044 24.848 164.057 25.2822H166.964ZM165.11 22.1852L166.385 20.6893L166.701 20.9737L165.342 22.4064L165.11 22.1852Z" fill="#666666"/>
<path d="M170.103 25.5773C170.03 25.1585 170.091 24.7274 170.275 24.3446C170.46 23.9618 170.76 23.6465 171.133 23.443C171.506 23.2396 171.934 23.1582 172.356 23.2103C172.778 23.2625 173.173 23.4455 173.485 23.7338V22.9015V21.0264H173.906V27.8421H173.559L173.506 27.2522C173.318 27.4634 173.09 27.6348 172.835 27.756C172.58 27.8773 172.303 27.946 172.021 27.958C170.851 27.958 170.103 27.1153 170.103 25.5773ZM173.474 26.8308V24.1341C173.126 23.7709 172.65 23.5591 172.147 23.5441C171.665 23.6022 171.227 23.8488 170.926 24.2299C170.626 24.6109 170.489 25.0955 170.546 25.5773C170.546 26.7887 171.083 27.5893 172.052 27.5893C172.331 27.5711 172.603 27.4941 172.85 27.3634C173.097 27.2327 173.313 27.0512 173.485 26.8308H173.474Z" fill="#666666"/>
<path d="M177.381 21.8165C177.379 21.7668 177.388 21.7173 177.407 21.6711C177.426 21.625 177.454 21.5832 177.489 21.5485C177.525 21.5139 177.568 21.487 177.614 21.4696C177.661 21.4523 177.711 21.4449 177.76 21.4478C177.81 21.4449 177.86 21.4523 177.906 21.4696C177.953 21.487 177.996 21.5139 178.031 21.5485C178.067 21.5832 178.095 21.625 178.114 21.6711C178.132 21.7173 178.141 21.7668 178.14 21.8165C178.14 21.8663 178.13 21.9156 178.111 21.9616C178.092 22.0076 178.064 22.0495 178.028 22.0847C177.993 22.1199 177.951 22.1478 177.905 22.1669C177.859 22.1859 177.81 22.1957 177.76 22.1957C177.71 22.1972 177.66 22.1884 177.613 22.1698C177.567 22.1513 177.524 22.1234 177.489 22.0879C177.453 22.0524 177.425 22.01 177.407 21.9633C177.388 21.9167 177.38 21.8667 177.381 21.8165V21.8165ZM177.539 23.2913H177.96V27.8421H177.539V23.2913Z" fill="#666666"/>
<path d="M181.227 25.5773C181.193 25.2784 181.222 24.9758 181.312 24.6887C181.402 24.4017 181.551 24.1367 181.749 23.9106C181.948 23.6844 182.191 23.5023 182.464 23.3757C182.737 23.2491 183.033 23.1809 183.334 23.1755C183.583 23.1757 183.829 23.2251 184.058 23.3209C184.288 23.4167 184.496 23.5571 184.672 23.7338L184.419 24.0287C184.145 23.735 183.767 23.5609 183.365 23.5442C183.121 23.5636 182.883 23.6324 182.667 23.7463C182.45 23.8602 182.258 24.0169 182.104 24.207C181.949 24.397 181.834 24.6164 181.767 24.8519C181.7 25.0875 181.681 25.3342 181.711 25.5773C181.711 26.7782 182.375 27.5893 183.365 27.5893C183.822 27.5778 184.257 27.3889 184.577 27.0626L184.798 27.3576C184.406 27.7325 183.887 27.9467 183.344 27.958C183.042 27.9621 182.743 27.9011 182.466 27.7792C182.189 27.6573 181.942 27.4773 181.742 27.2515C181.541 27.0257 181.391 26.7593 181.302 26.4704C181.213 26.1815 181.188 25.8769 181.227 25.5773V25.5773Z" fill="#666666"/>
<path d="M187.337 26.715C187.337 25.6616 188.254 25.2191 190.276 24.9979C190.276 24.2921 190.097 23.5442 189.223 23.5442C188.697 23.5653 188.191 23.7535 187.779 24.0814L187.579 23.7654C188.076 23.4089 188.665 23.204 189.275 23.1755C190.329 23.1755 190.719 23.9655 190.719 24.9347V27.8422H190.339V27.2522C189.897 27.6632 189.329 27.912 188.728 27.958C188.551 27.9885 188.369 27.9786 188.197 27.9292C188.025 27.8797 187.866 27.7919 187.732 27.6724C187.598 27.5529 187.493 27.4047 187.425 27.2389C187.357 27.0731 187.326 26.894 187.337 26.715V26.715ZM190.276 26.8625V25.3139C188.412 25.5246 187.769 25.967 187.769 26.6939C187.76 26.8208 187.779 26.948 187.826 27.0664C187.872 27.1848 187.944 27.2913 188.037 27.3781C188.13 27.465 188.241 27.53 188.363 27.5683C188.484 27.6067 188.612 27.6175 188.738 27.5999C189.324 27.5534 189.873 27.2906 190.276 26.8625V26.8625Z" fill="#666666"/>
<path d="M193.647 27.326L193.89 27.0205C194.282 27.3931 194.802 27.6005 195.343 27.5999C196.06 27.5999 196.397 27.1785 196.397 26.7045C196.397 26.2304 195.807 25.8828 195.28 25.651C194.596 25.4087 193.827 25.1243 193.827 24.3448C193.827 23.5652 194.353 23.1333 195.301 23.1333C195.774 23.1414 196.231 23.3084 196.597 23.6074L196.376 23.9129C196.082 23.6578 195.711 23.5093 195.322 23.4915C194.606 23.4915 194.269 23.9023 194.269 24.3237C194.269 24.7451 194.806 25.04 195.322 25.2402C196.028 25.5141 196.808 25.7458 196.808 26.6307C196.799 26.818 196.752 27.0015 196.669 27.1696C196.586 27.3377 196.469 27.4868 196.325 27.6075C196.182 27.7282 196.015 27.8179 195.835 27.871C195.655 27.9241 195.466 27.9394 195.28 27.9159C194.685 27.9103 194.109 27.7023 193.647 27.326V27.326Z" fill="#666666"/>
</svg>
