<svg xmlns="http://www.w3.org/2000/svg" xmlns:xlink="http://www.w3.org/1999/xlink" viewBox="0 0 249.68 114.81"><defs><style>.cls-1{fill:none;}.cls-2{fill:#666;}.cls-3{fill:#1c8eff;}.cls-4{fill:#676767;}.cls-5{clip-path:url(#clip-path);}.cls-6{fill:#0080ff;}</style><clipPath id="clip-path"><rect class="cls-1" x="91.27" y="14" width="56.15" height="53.15"/></clipPath></defs><g id="Logo-original"><path class="cls-2" d="M44.59,83.5l1.53-1.82A4.63,4.63,0,0,0,49,82.91c1.11,0,1.65-.44,1.65-1.13s-.67-1-1.69-1.4l-1.53-.65a3.42,3.42,0,0,1-2.37-3.2c0-1.94,1.74-3.5,4.18-3.5A5.46,5.46,0,0,1,53,74.57l-1.34,1.67a3.84,3.84,0,0,0-2.44-.92c-.91,0-1.49.39-1.49,1.06s.76,1,1.79,1.39l1.49.6a3.24,3.24,0,0,1,2.33,3.19c0,2-1.62,3.64-4.42,3.64A6.47,6.47,0,0,1,44.59,83.5Z"/><path class="cls-2" d="M54.93,73.36a1.54,1.54,0,1,1,1.54,1.39A1.41,1.41,0,0,1,54.93,73.36Zm.21,2.69h2.65V85H55.14Z"/><path class="cls-2" d="M59.32,84l1.19-1.65a3.83,3.83,0,0,0,2.3.94c.79,0,1.13-.3,1.13-.77s-.88-.85-1.8-1.21c-1.1-.42-2.37-1.15-2.37-2.63,0-1.66,1.35-2.79,3.42-2.79A5.07,5.07,0,0,1,66.33,77l-1.18,1.59a3.28,3.28,0,0,0-1.88-.77c-.69,0-1,.27-1,.72s.83.79,1.76,1.12c1.13.42,2.41,1.06,2.41,2.69s-1.28,2.88-3.67,2.88A5.76,5.76,0,0,1,59.32,84Z"/><path class="cls-2" d="M68.08,81.74V78.13H66.86v-2l1.37-.1.31-2.37h2.19v2.37h2.14v2.08H70.73v3.58c0,1,.46,1.41,1.15,1.41a2.47,2.47,0,0,0,.85-.17l.42,1.93a6.37,6.37,0,0,1-2,.32C69,85.2,68.08,83.81,68.08,81.74Z"/><path class="cls-2" d="M73.77,80.52A4.39,4.39,0,0,1,78,75.84c2.54,0,3.8,1.85,3.8,4.28a6,6,0,0,1-.11,1.17H76.34a2.14,2.14,0,0,0,2.31,1.89,3.73,3.73,0,0,0,1.94-.58l.87,1.59a5.75,5.75,0,0,1-3.17,1A4.36,4.36,0,0,1,73.77,80.52Zm5.76-1c0-1-.43-1.69-1.48-1.69a1.77,1.77,0,0,0-1.74,1.69Z"/><path class="cls-2" d="M83.62,76.05h2.15L86,77.2H86a3.71,3.71,0,0,1,2.71-1.36,2.47,2.47,0,0,1,2.46,1.5A3.9,3.9,0,0,1,94,75.84c1.93,0,2.79,1.37,2.79,3.6V85H94.16V79.78c0-1.29-.36-1.69-1.11-1.69a2.28,2.28,0,0,0-1.52.87v6H88.88V79.78c0-1.29-.35-1.69-1.1-1.69a2.3,2.3,0,0,0-1.52.87v6H83.62Z"/><path class="cls-2" d="M98.63,82.51c0-1.88,1.5-2.9,5-3.28a1.24,1.24,0,0,0-1.41-1.29,5,5,0,0,0-2.37.81L98.94,77a7.34,7.34,0,0,1,3.82-1.17c2.28,0,3.55,1.3,3.55,4V85h-2.16l-.19-.92h-.07a3.91,3.91,0,0,1-2.6,1.13A2.57,2.57,0,0,1,98.63,82.51Zm5-.12V80.83c-1.88.25-2.5.79-2.5,1.47s.4.85,1,.85A2,2,0,0,0,103.66,82.39Z"/><path class="cls-2" d="M107.74,84l1.19-1.65a3.83,3.83,0,0,0,2.3.94c.79,0,1.13-.3,1.13-.77s-.88-.85-1.8-1.21c-1.1-.42-2.37-1.15-2.37-2.63,0-1.66,1.35-2.79,3.42-2.79A5.07,5.07,0,0,1,114.75,77l-1.18,1.59a3.28,3.28,0,0,0-1.88-.77c-.69,0-1,.27-1,.72s.83.79,1.76,1.12c1.13.42,2.41,1.06,2.41,2.69s-1.28,2.88-3.67,2.88A5.76,5.76,0,0,1,107.74,84Z"/><path class="cls-2" d="M119.77,79.07c0-3.84,2.16-6,5.33-6s5.33,2.22,5.33,6-2.17,6.13-5.33,6.13S119.77,82.9,119.77,79.07Zm7.94,0c0-2.36-1-3.75-2.61-3.75s-2.61,1.39-2.61,3.75,1,3.84,2.61,3.84S127.71,81.42,127.71,79.07Z"/><path class="cls-2" d="M132.41,76.05h2.16l.19.88h.07a4,4,0,0,1,2.54-1.09c2.17,0,3.49,1.78,3.49,4.54,0,3.06-1.82,4.82-3.76,4.82a3.14,3.14,0,0,1-2.13-.93l.09,1.41V88.3h-2.65Zm5.74,4.36c0-1.61-.5-2.41-1.56-2.41a2.07,2.07,0,0,0-1.53.8v3.67a2.13,2.13,0,0,0,1.42.57C137.41,83,138.15,82.26,138.15,80.41Z"/><path class="cls-2" d="M142.21,80.52a4.38,4.38,0,0,1,4.21-4.68c2.54,0,3.81,1.85,3.81,4.28a6,6,0,0,1-.11,1.17h-5.35a2.16,2.16,0,0,0,2.32,1.89A3.73,3.73,0,0,0,149,82.6l.88,1.59a5.78,5.78,0,0,1-3.17,1A4.35,4.35,0,0,1,142.21,80.52Zm5.75-1c0-1-.42-1.69-1.48-1.69a1.77,1.77,0,0,0-1.74,1.69Z"/><path class="cls-2" d="M152.05,76.05h2.16l.19,1.56h.07A3,3,0,0,1,157,75.84a2.43,2.43,0,0,1,1.07.18l-.44,2.28a3.58,3.58,0,0,0-1-.14,2.2,2.2,0,0,0-2,1.65V85h-2.65Z"/><path class="cls-2" d="M158.3,82.51c0-1.88,1.5-2.9,5-3.28a1.24,1.24,0,0,0-1.41-1.29,5,5,0,0,0-2.37.81L158.61,77a7.34,7.34,0,0,1,3.82-1.17c2.28,0,3.55,1.3,3.55,4V85h-2.16l-.19-.92h-.07A3.91,3.91,0,0,1,161,85.2,2.57,2.57,0,0,1,158.3,82.51Zm5-.12V80.83c-1.88.25-2.5.79-2.5,1.47s.4.85,1,.85A2,2,0,0,0,163.33,82.39Z"/><path class="cls-2" d="M168.23,81.74V78.13H167v-2l1.37-.1.31-2.37h2.19v2.37H173v2.08h-2.14v3.58c0,1,.46,1.41,1.15,1.41a2.47,2.47,0,0,0,.85-.17l.42,1.93a6.3,6.3,0,0,1-2,.32C169.11,85.2,168.23,83.81,168.23,81.74Z"/><path class="cls-2" d="M174.56,73.36a1.54,1.54,0,1,1,1.53,1.39A1.41,1.41,0,0,1,174.56,73.36Zm.21,2.69h2.64V85h-2.64Z"/><path class="cls-2" d="M178.79,76.05h2.66l1.16,4.22c.23.89.46,1.81.69,2.74h.07c.23-.93.47-1.85.69-2.74l1.17-4.22h2.53L184.85,85h-3Z"/><path class="cls-2" d="M188.49,80.52a4.36,4.36,0,1,1,4.35,4.68A4.38,4.38,0,0,1,188.49,80.52Zm6,0c0-1.54-.55-2.55-1.64-2.55s-1.64,1-1.64,2.55.54,2.55,1.64,2.55S194.48,82.07,194.48,80.52Z"/><path class="cls-2" d="M198.11,84l1.19-1.65a3.83,3.83,0,0,0,2.31.94c.79,0,1.13-.3,1.13-.77s-.89-.85-1.81-1.21c-1.09-.42-2.36-1.15-2.36-2.63,0-1.66,1.35-2.79,3.41-2.79A5.07,5.07,0,0,1,205.13,77L204,78.56a3.31,3.31,0,0,0-1.88-.77c-.69,0-1,.27-1,.72s.83.79,1.76,1.12c1.13.42,2.4,1.06,2.4,2.69s-1.27,2.88-3.67,2.88A5.81,5.81,0,0,1,198.11,84Z"/><path class="cls-3" d="M204.42,59.19a12.3,12.3,0,0,1-2.91-.56c-2-.45-4-1-6-1.45l-2.86-.7c-1-.25-2.05-.4-3.07-.62-1.27-.27-2.56-.52-3.81-.85-1.07-.29-2.17-.36-3.22-.66-2-.56-3.93-.91-5.92-1.3-4.43-.88-8.89-1.65-13.36-2.34-3.33-.53-6.66-1-10-1.42-3.5-.42-7-.8-10.53-1.13q-8.58-.79-17.2-1c-6.38-.17-12.76-.13-19.13.18Q98.7,47.69,91,48.55q-7.5.84-14.9,2.2c-1.51.28-3,.55-4.52.88-1.21.25-2.38.69-3.6.85a24.85,24.85,0,0,0-3.46.8c-2.67.72-5.37,1.3-8,2.18-1.78.6-3.59,1.13-5.39,1.7-1.62.51-3.19,1.16-4.79,1.75a7.9,7.9,0,0,1-1.08.32A16.48,16.48,0,0,1,48,57.4a73.15,73.15,0,0,1,7.13-3.73c3.53-1.63,7.14-3.06,10.8-4.39,1.93-.7,3.91-1.27,5.85-1.93,1-.36,2.15-.64,3.24-.9a1.75,1.75,0,0,0,.78-.35H75c-2.35,0-4.7,0-7,0a1.57,1.57,0,0,1-1.47-.8c-.45-.65-.86-1.34-1.36-1.94a12.55,12.55,0,0,1-1.36-1.74c-.67-1.14-1.6-2.06-2.31-3.17s-1.72-2.19-2.54-3.32c-1-1.34-2-2.67-3-4a7.57,7.57,0,0,1-.57-.74c.76-1,1.59-1.95,2.3-3,1.18-1.77,2.48-3.46,3.75-5.17s2.36-3.21,3.57-4.8a25.3,25.3,0,0,0,2.16-3,.76.76,0,0,1,.81-.42h53.61a1.29,1.29,0,0,1-.53.72l-9.76,9.81c-.29.29-.62.56-.55,1,0,.23-.11.34-.35.34s-.44,0-.66,0q-15.94,0-31.9,0a1.63,1.63,0,0,0-1.47.67c-.92,1.17-1.93,2.28-2.89,3.42-.39.47-.39.49,0,1,1,1.25,2,2.48,3,3.76a1.38,1.38,0,0,0,1.26.58l31.73,0c.25,0,.5,0,.75,0,.44,0,.56.16.56.58,0,1.41,0,2.82,0,4.22,0,.7,0,.7.68.67.47,0,.94-.08,1.41-.08s.51-.11.48-.48c0-.19,0-.39,0-.58,0-4.25,0-8.51,0-12.76a1.59,1.59,0,0,1,.49-1.24q5.61-5.59,11.19-11.2a1,1,0,0,1,.87-.38c.22,0,.44,0,.66,0q21,0,42.1,0a2,2,0,0,1,1.58.67Q175.56,20.17,181,25.6a1.68,1.68,0,0,1,.54,1.3c0,7.37,0,14.75,0,22.13v.49c0,.68,0,.68.69.9,1.48.5,3,1,4.44,1.49,4.13,1.44,8.23,3,12.25,4.72q2.37,1,4.74,2.07A1.32,1.32,0,0,1,204.42,59.19ZM129.33,26.45c0,.14,0,.28,0,.42V39.8c0,.16,0,.33,0,.49m0,0c0,.37.15.48.49.49.55,0,1.11,0,1.66.06,4.9.32,9.79.75,14.66,1.42,3.69.51,7.37,1.09,11,1.78,2.73.52,5.45,1.1,8.24,1.72a2.11,2.11,0,0,0,.09-.95q0-9,0-17.9c0-1.13.11-1-1-1H130.34a4.17,4.17,0,0,1-.5,0c-.42-.05-.54.16-.51.53"/><path class="cls-4" d="M110.68,51.88c0,1.14,0,2.21,0,3.28a2,2,0,0,0,.7,1.66c2.29,2.24,4.54,4.52,6.81,6.78.17.18.35.35.51.54a.42.42,0,0,1,0,.64c-.5.62-1,1.27-1.43,1.91a.9.9,0,0,1-.9.45,2.94,2.94,0,0,0-.42,0H55.51c0-.39.27-.5.44-.67,3.56-3.58,7.14-7.16,10.69-10.75a1.54,1.54,0,0,1,1.23-.48h38.62a3.75,3.75,0,0,1,.58,0,.76.76,0,0,0,.74-.37c.74-.9,1.51-1.76,2.26-2.64A.93.93,0,0,1,110.68,51.88Z"/><path class="cls-4" d="M165.52,52.33c2.89.32,14.64,2.54,15.63,2.93,0,.25-.24.35-.39.5-3.6,3.62-7.22,7.22-10.82,10.85a1.64,1.64,0,0,1-1.3.52q-21.28,0-42.58,0a1.94,1.94,0,0,1-1.51-.61q-5.35-5.43-10.76-10.8a1.53,1.53,0,0,1-.53-1.15c0-1.9,0-3.81,0-5.71,0-.58,0-.6.61-.6,4.11,0,8.22-.09,12.33.09.66,0,1.33,0,2,.06,1.25,0,1.11-.15,1.12,1.11v5c0,.7,0,.71.74.71h34.7c.75,0,.75,0,.76-.78Z"/><g class="cls-5"><path class="cls-6" d="M204.42,59.19a12.3,12.3,0,0,1-2.91-.56c-2-.45-4-1-6-1.45l-2.86-.7c-1-.25-2.05-.4-3.07-.62-1.27-.27-2.56-.52-3.81-.85-1.07-.29-2.17-.36-3.22-.66-2-.56-3.93-.91-5.92-1.3-4.43-.88-8.89-1.65-13.36-2.34-3.33-.53-6.66-1-10-1.42-3.5-.42-7-.8-10.53-1.13q-8.58-.79-17.2-1c-6.38-.17-12.76-.13-19.13.18Q98.7,47.69,91,48.55q-7.5.84-14.9,2.2c-1.51.28-3,.55-4.52.88-1.21.25-2.38.69-3.6.85a24.85,24.85,0,0,0-3.46.8c-2.67.72-5.37,1.3-8,2.18-1.78.6-3.59,1.13-5.39,1.7-1.62.51-3.19,1.16-4.79,1.75a7.9,7.9,0,0,1-1.08.32A16.48,16.48,0,0,1,48,57.4a73.15,73.15,0,0,1,7.13-3.73c3.53-1.63,7.14-3.06,10.8-4.39,1.93-.7,3.91-1.27,5.85-1.93,1-.36,2.15-.64,3.24-.9a1.75,1.75,0,0,0,.78-.35H75c-2.35,0-4.7,0-7,0a1.57,1.57,0,0,1-1.47-.8c-.45-.65-.86-1.34-1.36-1.94a12.55,12.55,0,0,1-1.36-1.74c-.67-1.14-1.6-2.06-2.31-3.17s-1.72-2.19-2.54-3.32c-1-1.34-2-2.67-3-4a7.57,7.57,0,0,1-.57-.74c.76-1,1.59-1.95,2.3-3,1.18-1.77,2.48-3.46,3.75-5.17s2.36-3.21,3.57-4.8a25.3,25.3,0,0,0,2.16-3,.76.76,0,0,1,.81-.42h53.61a1.29,1.29,0,0,1-.53.72l-9.76,9.81c-.29.29-.62.56-.55,1,0,.23-.11.34-.35.34s-.44,0-.66,0q-15.94,0-31.9,0a1.63,1.63,0,0,0-1.47.67c-.92,1.17-1.93,2.28-2.89,3.42-.39.47-.39.49,0,1,1,1.25,2,2.48,3,3.76a1.38,1.38,0,0,0,1.26.58l31.73,0c.25,0,.5,0,.75,0,.44,0,.56.16.56.58,0,1.41,0,2.82,0,4.22,0,.7,0,.7.68.67.47,0,.94-.08,1.41-.08s.51-.11.48-.48c0-.19,0-.39,0-.58,0-4.25,0-8.51,0-12.76a1.59,1.59,0,0,1,.49-1.24q5.61-5.59,11.19-11.2a1,1,0,0,1,.87-.38c.22,0,.44,0,.66,0q21,0,42.1,0a2,2,0,0,1,1.58.67Q175.56,20.17,181,25.6a1.68,1.68,0,0,1,.54,1.3c0,7.37,0,14.75,0,22.13v.49c0,.68,0,.68.69.9,1.48.5,3,1,4.44,1.49,4.13,1.44,8.23,3,12.25,4.72q2.37,1,4.74,2.07A1.32,1.32,0,0,1,204.42,59.19ZM129.33,26.45c0,.14,0,.28,0,.42V39.8c0,.16,0,.33,0,.49m0,0c0,.37.15.48.49.49.55,0,1.11,0,1.66.06,4.9.32,9.79.75,14.66,1.42,3.69.51,7.37,1.09,11,1.78,2.73.52,5.45,1.1,8.24,1.72a2.11,2.11,0,0,0,.09-.95q0-9,0-17.9c0-1.13.11-1-1-1H130.34a4.17,4.17,0,0,1-.5,0c-.42-.05-.54.16-.51.53"/><path class="cls-2" d="M110.68,51.88c0,1.14,0,2.21,0,3.28a2,2,0,0,0,.7,1.66c2.29,2.24,4.54,4.52,6.81,6.78.17.18.35.35.51.54a.42.42,0,0,1,0,.64c-.5.62-1,1.27-1.43,1.91a.9.9,0,0,1-.9.45,2.94,2.94,0,0,0-.42,0H55.51c0-.39.27-.5.44-.67,3.56-3.58,7.14-7.16,10.69-10.75a1.54,1.54,0,0,1,1.23-.48h38.62a3.75,3.75,0,0,1,.58,0,.76.76,0,0,0,.74-.37c.74-.9,1.51-1.76,2.26-2.64A.93.93,0,0,1,110.68,51.88Z"/><path class="cls-2" d="M165.52,52.33c2.89.32,14.64,2.54,15.63,2.93,0,.25-.24.35-.39.5-3.6,3.62-7.22,7.22-10.82,10.85a1.64,1.64,0,0,1-1.3.52q-21.28,0-42.58,0a1.94,1.94,0,0,1-1.51-.61q-5.35-5.43-10.76-10.8a1.53,1.53,0,0,1-.53-1.15c0-1.9,0-3.81,0-5.71,0-.58,0-.6.61-.6,4.11,0,8.22-.09,12.33.09.66,0,1.33,0,2,.06,1.25,0,1.11-.15,1.12,1.11v5c0,.7,0,.71.74.71h34.7c.75,0,.75,0,.76-.78Z"/></g><path class="cls-2" d="M72.8,97.44l.27-.29a2.31,2.31,0,0,0,1.74.8c.9,0,1.48-.48,1.48-1.19s-.49-1-1.07-1.24l-.9-.4a1.63,1.63,0,0,1-1.2-1.48,1.55,1.55,0,0,1,1.72-1.46,2.29,2.29,0,0,1,1.65.71l-.24.28a1.87,1.87,0,0,0-1.41-.61c-.78,0-1.31.42-1.31,1.06s.59.95,1,1.14l.9.4c.66.3,1.24.67,1.24,1.57a1.68,1.68,0,0,1-1.89,1.6A2.64,2.64,0,0,1,72.8,97.44Z"/><path class="cls-2" d="M79.34,96.07a2,2,0,1,1,1.94,2.26A2,2,0,0,1,79.34,96.07Zm3.46,0c0-1.14-.65-1.93-1.52-1.93s-1.52.79-1.52,1.93S80.41,98,81.28,98,82.8,97.21,82.8,96.07Z"/><path class="cls-2" d="M86.31,97.64V91.75h.4v6c0,.19.08.28.18.28l.17,0,.06.33a1,1,0,0,1-.28,0C86.49,98.33,86.31,98.12,86.31,97.64Z"/><path class="cls-2" d="M90.17,96.67V93.9h.4v2.72c0,.92.29,1.35,1,1.35.51,0,.88-.27,1.39-.88V93.9h.4v4.32H93l0-.72h0a1.92,1.92,0,0,1-1.47.83C90.59,98.33,90.17,97.79,90.17,96.67Z"/><path class="cls-2" d="M96.44,96.07a2.05,2.05,0,0,1,2-2.28,1.79,1.79,0,0,1,1.27.53l-.23.28a1.5,1.5,0,0,0-1-.46,1.72,1.72,0,0,0-1.56,1.93c0,1.14.62,1.91,1.56,1.91a1.72,1.72,0,0,0,1.16-.5l.2.28a2.06,2.06,0,0,1-1.38.57A2,2,0,0,1,96.44,96.07Z"/><path class="cls-2" d="M102.49,92.5a.36.36,0,0,1,.72,0,.36.36,0,0,1-.72,0Zm.15,1.4h.4v4.32h-.4Z"/><path class="cls-2" d="M106.14,96.07a2,2,0,1,1,1.94,2.26A2,2,0,0,1,106.14,96.07Zm3.47,0c0-1.14-.65-1.93-1.53-1.93s-1.52.79-1.52,1.93.65,1.91,1.52,1.91S109.61,97.21,109.61,96.07Z"/><path class="cls-2" d="M113.12,93.9h.34l0,.67h0a2.12,2.12,0,0,1,1.49-.78c.89,0,1.3.54,1.3,1.66v2.77h-.39V95.5c0-.91-.29-1.35-1-1.35a2,2,0,0,0-1.41.81v3.26h-.4Z"/><path class="cls-2" d="M119.34,96.07a2.07,2.07,0,0,1,1.89-2.28c1,0,1.65.73,1.65,2a1.83,1.83,0,0,1,0,.33h-3.11A1.7,1.7,0,0,0,121.38,98a1.92,1.92,0,0,0,1.16-.39l.17.31a2.39,2.39,0,0,1-1.37.42A2,2,0,0,1,119.34,96.07Zm3.17-.28c0-1.11-.5-1.65-1.28-1.65a1.61,1.61,0,0,0-1.48,1.65Z"/><path class="cls-2" d="M125.32,97.73l.23-.29a2,2,0,0,0,1.37.55c.68,0,1-.4,1-.85s-.56-.78-1-1c-.66-.23-1.38-.5-1.38-1.24s.49-1.15,1.39-1.15a2,2,0,0,1,1.24.45l-.22.29a1.64,1.64,0,0,0-1-.4c-.67,0-1,.39-1,.79s.51.68,1,.87c.67.26,1.41.48,1.41,1.32a1.29,1.29,0,0,1-1.46,1.22A2.44,2.44,0,0,1,125.32,97.73Z"/><path class="cls-2" d="M134.9,93.9h.34l0,.67h0a2,2,0,0,1,1.37-.78,1.11,1.11,0,0,1,1.19.88,2.15,2.15,0,0,1,1.47-.88c.86,0,1.29.54,1.29,1.66v2.77h-.4V95.5c0-.91-.3-1.35-1-1.35A1.89,1.89,0,0,0,138,95v3.26h-.4V95.5c0-.91-.3-1.35-1-1.35a1.89,1.89,0,0,0-1.29.81v3.26h-.4Z"/><path class="cls-2" d="M143.64,96.07a2.07,2.07,0,0,1,1.89-2.28c1,0,1.65.73,1.65,2a1.83,1.83,0,0,1,0,.33h-3.11A1.7,1.7,0,0,0,145.68,98a1.92,1.92,0,0,0,1.16-.39l.17.31a2.39,2.39,0,0,1-1.37.42A2,2,0,0,1,143.64,96.07Zm3.17-.28c0-1.11-.5-1.65-1.28-1.65a1.61,1.61,0,0,0-1.48,1.65Zm-1.76-2.94,1.21-1.42.3.27-1.29,1.36Z"/><path class="cls-2" d="M149.79,96.07A1.93,1.93,0,0,1,153,94.32l0-.79V91.75h.4v6.47h-.33l-.05-.56h0a2,2,0,0,1-1.41.67C150.5,98.33,149.79,97.53,149.79,96.07Zm3.2,1.19V94.7a1.82,1.82,0,0,0-1.26-.56,1.74,1.74,0,0,0-1.52,1.93c0,1.15.51,1.91,1.43,1.91A1.88,1.88,0,0,0,153,97.26Z"/><path class="cls-2" d="M156.7,92.5a.34.34,0,0,1,.36-.35.34.34,0,0,1,.36.35.36.36,0,0,1-.36.36A.35.35,0,0,1,156.7,92.5Zm.15,1.4h.4v4.32h-.4Z"/><path class="cls-2" d="M160.35,96.07a2.05,2.05,0,0,1,2-2.28,1.79,1.79,0,0,1,1.27.53l-.24.28a1.45,1.45,0,0,0-1-.46,1.72,1.72,0,0,0-1.57,1.93c0,1.14.63,1.91,1.57,1.91a1.67,1.67,0,0,0,1.15-.5l.21.28a2.06,2.06,0,0,1-1.38.57A2,2,0,0,1,160.35,96.07Z"/><path class="cls-2" d="M166.15,97.15c0-1,.87-1.42,2.79-1.63,0-.67-.17-1.38-1-1.38a2.35,2.35,0,0,0-1.37.51l-.19-.3a3,3,0,0,1,1.61-.56c1,0,1.37.75,1.37,1.67v2.76H169l0-.56h0a2.53,2.53,0,0,1-1.53.67A1.13,1.13,0,0,1,166.15,97.15Zm2.79.14V95.82c-1.77.2-2.38.62-2.38,1.31a.81.81,0,0,0,.92.86A2.25,2.25,0,0,0,168.94,97.29Z"/><path class="cls-2" d="M172.14,97.73l.23-.29a2,2,0,0,0,1.38.55c.68,0,1-.4,1-.85s-.56-.78-1.06-1c-.65-.23-1.38-.5-1.38-1.24s.5-1.15,1.4-1.15a2,2,0,0,1,1.23.45l-.21.29a1.64,1.64,0,0,0-1-.4c-.68,0-1,.39-1,.79s.51.68,1,.87c.67.26,1.41.48,1.41,1.32a1.29,1.29,0,0,1-1.45,1.22A2.49,2.49,0,0,1,172.14,97.73Z"/></g></svg>