<svg xmlns="http://www.w3.org/2000/svg" viewBox="0 0 187.41 307.06"><defs><style>.cls-1,.cls-2,.cls-6,.cls-7,.cls-8,.cls-9{fill:none;}.cls-1,.cls-2,.cls-4,.cls-5,.cls-6,.cls-7,.cls-8,.cls-9{stroke:#fff;}.cls-1,.cls-2{stroke-linecap:round;stroke-width:1.22px;}.cls-1,.cls-4,.cls-5,.cls-6,.cls-7,.cls-8,.cls-9{stroke-miterlimit:10;}.cls-2{stroke-linejoin:round;}.cls-3,.cls-5{fill:#fff;}.cls-4{fill:#1d1d1b;}.cls-6,.cls-7,.cls-8{stroke-width:0.7px;}.cls-7{stroke-dasharray:5.03 2.01;}.cls-8{stroke-dasharray:5.11 2.04;}.cls-9{stroke-width:2px;}</style></defs><g id="texto_001" data-name="texto 001"><g id="Capa_6" data-name="Capa 6"><rect width="187.41" height="307.06"/><path class="cls-1" d="M134,79.33a6.08,6.08,0,0,0,2.67-5.87,6,6,0,0,0-6-5.08"/><path class="cls-1" d="M137,91a6.31,6.31,0,0,1-4.85-2.8,7.13,7.13,0,0,1-1-4.49,6,6,0,0,1,2.83-4.4h0"/><path class="cls-1" d="M68.48,94.4a6.08,6.08,0,0,0,5-4.09,6,6,0,0,0-3.19-7.23"/><path class="cls-1" d="M82.66,90.23a6.08,6.08,0,0,0,5-4.09,5.94,5.94,0,0,0-3.19-7.22"/><path class="cls-1" d="M98.68,78.61a3.09,3.09,0,0,0,3.12-1,3,3,0,0,0-.16-4"/><path class="cls-1" d="M95.32,83.78A3.23,3.23,0,0,1,94.71,81a3.67,3.67,0,0,1,1.34-1.94,3,3,0,0,1,2.63-.44h0"/><line class="cls-1" x1="58.36" y1="82.38" x2="51.19" y2="61.51"/><path class="cls-1" d="M51.19,61.51a4.39,4.39,0,0,1,.58-4.81"/><path class="cls-1" d="M88,36.94a4.3,4.3,0,0,1,2,0A5.27,5.27,0,0,1,92.18,38"/><line class="cls-1" x1="92.05" y1="37.94" x2="111.95" y2="54.65"/><path class="cls-1" d="M87.73,37,88,37"/><path class="cls-1" d="M51.4,57.21S61.61,42.93,87.73,37"/><line class="cls-1" x1="147.84" y1="59.39" x2="38.37" y2="92.76"/><path class="cls-1" d="M39.06,100a3.92,3.92,0,0,1-.69-7.2"/><line class="cls-1" x1="39.06" y1="99.96" x2="50.36" y2="101.41"/><line class="cls-1" x1="147.23" y1="51.57" x2="112.19" y2="54.53"/><path class="cls-1" d="M147.84,59.39A4.14,4.14,0,0,0,150,56.26c.3-2.29-.49-4.39-2.78-4.69"/><line class="cls-1" x1="112.19" y1="54.53" x2="71.7" y2="77.46"/><path class="cls-1" d="M80.91,95.51c-1.45-1.85-3.58-.09-3.58-.09s-3.54,3.15.44,9.34,7.53,3.13,7.53,3.13"/><path class="cls-1" d="M79.27,98.47a2.48,2.48,0,0,1,.68-.1,2.33,2.33,0,0,1,1.3,4.25"/><path class="cls-1" d="M82.61,105a1.35,1.35,0,0,1-.41.07,1.41,1.41,0,0,1-.84-2.55"/><path class="cls-1" d="M116,90.14a14.69,14.69,0,0,1-3.55-.22c-1-.26-2.93-.67-4-.9-.2,0-.62-.12-.38-.41,0,0,.78-2.59,10.27-2.26"/><path class="cls-1" d="M115.51,87a1.93,1.93,0,0,1,.86,1.88c0,.62-.63.8.32,2.36"/><circle class="cls-1" cx="114.76" cy="88.47" r="1.58"/><path class="cls-1" d="M99.84,87.1l4-3.25a5,5,0,0,1,2.59-1.08c2.78-.33,9-.77,13.28,0"/><path class="cls-1" d="M57.46,118.92c2.21-.28,3.45-1.83,4.17-4.09a5.93,5.93,0,0,0-3.18-7.22"/><path class="cls-1" d="M54.72,114.11c-1.9,1.16-2.32,3.41-2,5.77a5.93,5.93,0,0,0,5.87,5.28"/><path class="cls-1" d="M66.22,117.27a6.06,6.06,0,0,0,6.4-.78c2.34-1.94,2-5.31.37-7.8"/><path class="cls-1" d="M66.06,106.24a6.35,6.35,0,0,1-3.12-4.65A7.17,7.17,0,0,1,64,97.1a5.92,5.92,0,0,1,4.48-2.7h0"/><path class="cls-1" d="M55.56,109.89c-2.79-1.37-4.54-4.44-5.11-7.61s1.33-6.7,1.74-7.34a9.7,9.7,0,0,1,7.32-4.41h0"/><path class="cls-2" d="M122.62,75.49s.63,8.4.14,12.1c-.21,1.58-1,3.42-.57,4.5,1.48,4,.48,2,2.26,5.45.31.59,2.08,3.71,2.45,4.27v0A1.21,1.21,0,0,1,127,103l0,0a3.27,3.27,0,0,1-1.46,1.61L125,105a4.75,4.75,0,0,1-.73.32l-.9.31c-.15.08-.52.21-.5.47l.07.35a5.59,5.59,0,0,0,1,1.39l.12.13.38.54a1.25,1.25,0,0,1,0,.83,3.85,3.85,0,0,1-.91,1.21h0a.89.89,0,0,0-.07,1.11h0a1.09,1.09,0,0,1-.15,1.42h0a2.86,2.86,0,0,0-.88,2.36l.85,3.36a4,4,0,0,1-.2,2.43l0,0c-.68,1.3-2.85,2.33-4.28,2.65a17.73,17.73,0,0,1-6.17.55,50.8,50.8,0,0,1-9.38-1.29,54.47,54.47,0,0,1-5.29-1.61"/><path class="cls-1" d="M72.51,117.06s.77,12.62-2,14.05"/><path class="cls-1" d="M104.14,123.36s.65,6.56,2.72,7.75"/><path class="cls-3" d="M19.41,271.61h2.84a3.85,3.85,0,0,1,4,4.17c0,2.53-1.59,4.32-4,4.32H19.41Zm.66,7.88h2.07c2.26,0,3.37-1.58,3.37-3.68,0-1.86-1-3.6-3.37-3.6H20.07Z"/><path class="cls-3" d="M28.46,271.16h.61v1.17h-.61Zm0,2.87h.61v6.07h-.61Z"/><path class="cls-3" d="M31.47,278.28a1.61,1.61,0,0,0,1.73,1.26c1.09,0,1.53-.5,1.53-1.18s-.29-1-1.66-1.36c-1.58-.37-2-.85-2-1.65s.64-1.61,2-1.61a2,2,0,0,1,2.14,1.7h-.61a1.45,1.45,0,0,0-1.56-1.14c-1.06,0-1.37.52-1.37,1s.3.84,1.51,1.13c1.72.42,2.15,1,2.15,1.88,0,1.11-.9,1.79-2.19,1.79a2.12,2.12,0,0,1-2.35-1.82Z"/><path class="cls-3" d="M37.5,277c0,1.57.8,2.54,2,2.54a1.73,1.73,0,0,0,1.76-1.14h.63a2.35,2.35,0,0,1-2.42,1.71c-1.86,0-2.58-1.59-2.58-3.13,0-1.74.87-3.23,2.66-3.23A2.51,2.51,0,0,1,42,276.49c0,.17,0,.34,0,.5Zm3.88-.53a1.93,1.93,0,0,0-1.88-2.15c-1.26,0-1.83.87-2,2.15Z"/><path class="cls-3" d="M43.94,275.56c0-.53,0-1,0-1.53h.6a11.17,11.17,0,0,1,0,1.15,2,2,0,0,1,2-1.29c1.08,0,2,.6,2,2.28v3.93H48v-3.84c0-1.08-.45-1.78-1.52-1.78-1.45,0-2,1.2-2,2.52v3.1h-.61Zm.53-2.94v-.19c0-.76.35-1.06.89-1.06s1.29.67,1.75.67c.26,0,.38-.13.38-.57v-.14H48v.2c0,.78-.33,1.09-.88,1.09s-1.19-.68-1.77-.68c-.22,0-.36.14-.36.48v.2Z"/><path class="cls-3" d="M55.22,278.8a8.4,8.4,0,0,0,.1,1.3h-.6a5.48,5.48,0,0,1-.11-1.08,2,2,0,0,1-2,1.08,1.81,1.81,0,0,1-2-1.82c0-1.34,1-1.94,2.88-1.94h1.16v-.62c0-.61-.19-1.42-1.58-1.42s-1.42.64-1.55,1.14h-.62a1.9,1.9,0,0,1,2.18-1.7c1.4,0,2.18.58,2.18,1.92Zm-.6-1.94h-1.2c-1.36,0-2.2.35-2.2,1.39a1.27,1.27,0,0,0,1.41,1.29c1.75,0,2-1.15,2-2.46Z"/><path class="cls-3" d="M62.41,271v7.19c0,.59,0,1.29,0,1.9h-.57c0-.15-.05-.86-.05-1.17a2,2,0,0,1-2.06,1.17c-1.59,0-2.54-1.29-2.54-3.11s1-3.25,2.7-3.25c1.23,0,1.72.52,1.9.91V271Zm-4.56,6c0,1.66.87,2.56,1.92,2.56,1.61,0,2-1.11,2-2.76s-.37-2.46-1.94-2.46C58.67,274.31,57.85,275.27,57.85,277Z"/><path class="cls-3" d="M69.82,276.91c0,1.68-.94,3.19-2.76,3.19-1.65,0-2.68-1.35-2.68-3.18s1-3.18,2.74-3.18C68.75,273.74,69.82,275,69.82,276.91Zm-4.79,0c0,1.44.78,2.61,2.08,2.61s2.07-1.08,2.07-2.61-.74-2.61-2.1-2.61S65,275.46,65,276.92Z"/><path class="cls-3" d="M71.79,275.68c0-1,0-1.45,0-1.65h.6c0,.2,0,.58,0,1.36a2.31,2.31,0,0,1,2.13-1.5v.65a2.2,2.2,0,0,0-2.13,2.4v3.16h-.61Z"/><path class="cls-3" d="M84.56,271v7.19c0,.58,0,1.31,0,1.92H84c0-.15-.07-.89-.07-1.19a2,2,0,0,1-2.06,1.16c-1.59,0-2.54-1.28-2.54-3.1s1-3.25,2.7-3.25c1.23,0,1.72.52,1.9.91V271ZM80,276.94c0,1.66.87,2.56,1.92,2.56,1.61,0,2-1.1,2-2.75s-.38-2.46-1.94-2.46C80.82,274.29,80,275.24,80,276.94Z"/><path class="cls-3" d="M87.18,277c0,1.57.8,2.54,2,2.54a1.73,1.73,0,0,0,1.76-1.14h.63a2.35,2.35,0,0,1-2.42,1.71c-1.86,0-2.58-1.59-2.58-3.13,0-1.74.87-3.23,2.66-3.23a2.51,2.51,0,0,1,2.48,2.75c0,.17,0,.34,0,.5Zm3.88-.53a1.93,1.93,0,0,0-1.88-2.15c-1.26,0-1.83.87-2,2.15Z"/><path class="cls-3" d="M97.38,277c0,1.57.8,2.54,2,2.54a1.73,1.73,0,0,0,1.76-1.14h.62a2.33,2.33,0,0,1-2.41,1.71c-1.86,0-2.58-1.59-2.58-3.13,0-1.74.87-3.23,2.66-3.23a2.51,2.51,0,0,1,2.48,2.75c0,.17,0,.34,0,.5Zm3.88-.53a1.93,1.93,0,0,0-1.88-2.15c-1.26,0-1.83.87-2,2.15Z"/><path class="cls-3" d="M103.8,274c1,1.49,1.45,2.16,1.7,2.52h0L107.3,274H108L105.87,277,108,280.1h-.73c-.88-1.3-1.52-2.22-1.81-2.65h0c-.23.35-.78,1.18-1.78,2.65H103l2.16-3.08-2.07-3Z"/><path class="cls-3" d="M110.14,279.05v3.33h-.61v-7c0-.5,0-1,0-1.49h.6a10.24,10.24,0,0,1,0,1.09,2.25,2.25,0,0,1,2.15-1.24c1.45,0,2.45,1.2,2.45,3,0,2.18-1.17,3.34-2.65,3.34A2,2,0,0,1,110.14,279.05Zm4-2.27c0-1.4-.68-2.46-1.9-2.46-1.48,0-2.09.92-2.09,2.57s.48,2.64,2,2.64C113.38,279.53,114.09,278.46,114.09,276.78Z"/><path class="cls-3" d="M117,277c0,1.56.8,2.53,2,2.53a1.72,1.72,0,0,0,1.76-1.14h.63a2.35,2.35,0,0,1-2.42,1.71c-1.86,0-2.58-1.59-2.58-3.13,0-1.73.87-3.22,2.66-3.22a2.51,2.51,0,0,1,2.48,2.75c0,.17,0,.34,0,.5Zm3.88-.54a1.92,1.92,0,0,0-1.88-2.14c-1.26,0-1.83.87-2,2.14Z"/><path class="cls-3" d="M123.42,275.68c0-1,0-1.45,0-1.65h.6c0,.2,0,.58,0,1.36a2.3,2.3,0,0,1,2.13-1.5v.65a2.2,2.2,0,0,0-2.13,2.4v3.16h-.61Z"/><path class="cls-3" d="M127.73,271.16h.61v1.17h-.61Zm0,2.87h.61v6.07h-.61Z"/><path class="cls-3" d="M130.94,277c0,1.57.8,2.54,2,2.54a1.73,1.73,0,0,0,1.76-1.14h.63a2.35,2.35,0,0,1-2.42,1.71c-1.85,0-2.58-1.59-2.58-3.13,0-1.74.87-3.23,2.66-3.23a2.51,2.51,0,0,1,2.48,2.75c0,.17,0,.34,0,.5Zm3.88-.53a1.93,1.93,0,0,0-1.88-2.15c-1.26,0-1.83.87-2,2.15Z"/><path class="cls-3" d="M137.39,275.56c0-.53,0-1,0-1.53h.6a11.25,11.25,0,0,1,0,1.15,2,2,0,0,1,2-1.29c1.09,0,2.05.6,2.05,2.28v3.93h-.61v-3.84c0-1.08-.45-1.78-1.52-1.78-1.45,0-2,1.2-2,2.52v3.1h-.62Z"/><path class="cls-3" d="M149.05,278.17a2.34,2.34,0,0,1-2.37,1.93c-1.53,0-2.62-1.13-2.62-3.16,0-1.66.89-3.2,2.69-3.2a2.17,2.17,0,0,1,2.3,1.94h-.62a1.65,1.65,0,0,0-1.69-1.37c-1.3,0-2,1.09-2,2.61s.68,2.61,2,2.61a1.73,1.73,0,0,0,1.75-1.36Z"/><path class="cls-3" d="M151.08,271.16h.61v1.17h-.61Zm0,2.87h.61v6.07h-.61Z"/><path class="cls-3" d="M158.26,278.8a8.4,8.4,0,0,0,.1,1.3h-.56a4.63,4.63,0,0,1-.15-1.08,2,2,0,0,1-2,1.08,1.81,1.81,0,0,1-2-1.82c0-1.34,1-1.94,2.88-1.94h1.16v-.62c0-.61-.18-1.42-1.58-1.42-1.23,0-1.42.64-1.55,1.14h-.61c.07-.67.48-1.7,2.17-1.7,1.4,0,2.18.58,2.18,1.92Zm-.6-1.94h-1.2c-1.36,0-2.2.35-2.2,1.39a1.27,1.27,0,0,0,1.41,1.29c1.75,0,2-1.15,2-2.46Z"/><path class="cls-3" d="M160.45,278.28a1.62,1.62,0,0,0,1.74,1.26c1.09,0,1.53-.5,1.53-1.18s-.29-1-1.66-1.36c-1.58-.37-2-.85-2-1.65s.63-1.61,2-1.61a2,2,0,0,1,2.14,1.7h-.61a1.45,1.45,0,0,0-1.56-1.14c-1.06,0-1.37.52-1.37,1s.29.84,1.51,1.13c1.72.42,2.15,1,2.15,1.88,0,1.11-.91,1.79-2.19,1.79a2.12,2.12,0,0,1-2.35-1.82Z"/><path class="cls-4" d="M41.62,191.87q0,8.79-8.11,10.49l8,16.42h-.89l-8-16.27a14.2,14.2,0,0,1-2.39.19H20.73v16.07h-.8V181H30.25a12.65,12.65,0,0,1,7.27,2Q41.63,185.82,41.62,191.87Zm-.77,0q0-5.62-3.75-8.19a11.82,11.82,0,0,0-6.85-1.87H20.73V201.9h9.52a12,12,0,0,0,6.85-1.82Q40.85,197.58,40.85,191.87Z"/><path class="cls-4" d="M72,208a10.35,10.35,0,0,1-3.16,7.65,11,11,0,0,1-15.37,0A10.4,10.4,0,0,1,50.38,208v-27.1h.82l0,27.1a10,10,0,0,0,17.06,7.12A9.69,9.69,0,0,0,71.22,208V181H72Z"/><path class="cls-4" d="M102.48,208.12q0,6.18-4.83,9a11.74,11.74,0,0,1-6,1.71H80.81V180.91H91.63a10.32,10.32,0,0,1,5.31,1.34q3.74,2.19,3.73,7.33,0,6-6.07,8.19Q102.48,199.75,102.48,208.12Zm-2.66-18.54q0-4.65-3.33-6.6a9.39,9.39,0,0,0-4.86-1.23h-10v15.66h11a7.12,7.12,0,0,0,3.92-1.6A7.24,7.24,0,0,0,99.82,189.58Zm1.84,18.54q0-8.37-9-9.9h-11V218h10a10.91,10.91,0,0,0,5.6-1.62Q101.66,213.8,101.66,208.12Z"/><path class="cls-4" d="M163.88,218.8H163l-20.1-36.29V218.8H142V180.88h.91l20.12,36.3v-36.3h.83Z"/><path class="cls-4" d="M41.78,265H19.91V227.1h.85v37.09h21Z"/><path class="cls-4" d="M67.87,227.11l-3.62,2.7H62.8l3.55-2.69Z"/><path class="cls-4" d="M51.4,247.59v-4.3a10,10,0,0,1,17.06-7.06,9.62,9.62,0,0,1,2.94,7.06v4.47c.27,0,.54,0,.82,0v-4.47a10.86,10.86,0,0,0-18.53-7.68,10.58,10.58,0,0,0-3.14,7.68v4.3C50.83,247.57,51.12,247.6,51.4,247.59Z"/><path class="cls-4" d="M71.4,248.42v5.74a10,10,0,0,1-17.09,7.12,9.68,9.68,0,0,1-2.91-7.12V248l-.85,0v6.16A10.71,10.71,0,0,0,61.37,265a10.57,10.57,0,0,0,7.68-3.13,10.39,10.39,0,0,0,3.17-7.66v-5.7Z"/><path class="cls-4" d="M102.64,237.88q0,6.13-4.1,8.87a12.67,12.67,0,0,1-7.26,1.95H81.82v16.24H81V227H91.28a12.56,12.56,0,0,1,7.26,2Q102.64,231.83,102.64,237.88Zm-.82,0q0-5.59-3.73-8.14a11.78,11.78,0,0,0-6.81-1.86H81.82v20h9.46A11.82,11.82,0,0,0,98.09,246C100.58,244.39,101.82,241.66,101.82,237.88Z"/><path class="cls-5" d="M133.41,265h-22V227h22v.84H112.5v15.67H128v.82H112.5V264.2h20.91Z"/><path class="cls-5" d="M133.41,218.8h-22V180.88h22v.84H112.5v15.67H128v.81H112.5V218h20.91Z"/><path class="cls-4" d="M163.64,227,143.81,264.2h20.08V265H142.37l19.76-37.08H142.06V227Z"/><path class="cls-6" d="M147.7,87.59c0,.84,0,1.67,0,2.5"/><path class="cls-7" d="M147.63,92.1a57.61,57.61,0,0,1-107,26.21"/><path class="cls-6" d="M40.09,117.44c-.42-.72-.81-1.45-1.2-2.2"/><path class="cls-6" d="M32.57,91.46c0-.44,0-.89,0-1.33s0-.78,0-1.17"/><path class="cls-8" d="M32.54,86.92a57.6,57.6,0,0,1,93.84-42.81"/><path class="cls-6" d="M127.17,44.76c.64.54,1.26,1.09,1.88,1.65"/><path class="cls-9" d="M155.91,83.33c.07.82.12,1.64.16,2.47a66,66,0,0,1-124.85,33"/><path class="cls-9" d="M24.27,93.79A66,66,0,0,1,137.78,43.17"/></g></g></svg>