<svg width="24" height="19" viewBox="0 0 24 19" fill="none" xmlns="http://www.w3.org/2000/svg">
<path d="M23.5 2.375C23.5 1.3137 22.691 0.5 21.75 0.5H2.25C1.30861 0.5 0.5 1.31363 0.5 2.375C0.5 2.97482 0.767813 3.53113 1.21078 3.88331C1.21088 3.88339 1.21098 3.88347 1.21108 3.88356L11.4092 11.9571C11.4094 11.9573 11.4096 11.9574 11.4099 11.9576C11.7625 12.2347 12.2375 12.2347 12.5901 11.9576C12.5904 11.9574 12.5906 11.9573 12.5908 11.9571L22.7891 3.88339L23.5 2.375ZM23.5 2.375C23.5 2.97497 23.2327 3.53098 22.7896 3.88298L23.5 2.375ZM9.88965 14.0087C11.1403 14.9988 12.8597 14.9988 14.1104 14.0087L23.5 6.57522V15.8333C23.5 17.3296 22.3534 18.5 21 18.5H3C1.64449 18.5 0.5 17.3299 0.5 15.8333V6.57522L9.88965 14.0087Z" stroke="black"/>
</svg>
